<svg version="1.1" xmlns="http://www.w3.org/2000/svg" viewBox="0 0 99.99389297420157 70.5014655986406" width="99.99389297420157" height="70.5014655986406">
  <!-- svg-source:excalidraw -->
  
  <defs>
    <style class="style-fonts">
      
    </style>
    
  </defs>
  <rect x="0" y="0" width="99.99389297420157" height="70.5014655986406" fill="transparent"></rect><g stroke-linecap="round" transform="translate(11.00164150696628 22.617427780100115) rotate(0 39.496125733617646 18.942018909270246)"><path d="M9.47 0 C23.06 2.48, 39.55 -2.43, 69.52 0 C75.96 -4.06, 83.17 8.6, 78.99 9.47 C83.9 14.36, 81.16 15.94, 78.99 28.41 C80.66 34.8, 74.86 43.18, 69.52 37.88 C44.41 42.45, 20.94 41.46, 9.47 37.88 C2.2 38.19, 4.95 32.31, 0 28.41 C0.68 19.27, 3.57 19.26, 0 9.47 C1.54 7.58, -1.79 4.08, 9.47 0" stroke="none" stroke-width="0" fill="#fab005"></path><path d="M9.47 0 C24.76 -0.35, 40.9 -2.12, 69.52 0 M9.47 0 C23.73 -1.55, 39.97 -1.13, 69.52 0 M69.52 0 C71.98 1.96, 80.7 3.58, 78.99 9.47 M69.52 0 C76.67 -3.3, 81.46 7.05, 78.99 9.47 M78.99 9.47 C76.3 15.36, 75.99 26.7, 78.99 28.41 M78.99 9.47 C77.81 13.74, 77.34 17.56, 78.99 28.41 M78.99 28.41 C77.01 34.41, 73.17 39.86, 69.52 37.88 M78.99 28.41 C75.04 31.43, 74.53 37.32, 69.52 37.88 M69.52 37.88 C54.33 35.1, 40.16 38.89, 9.47 37.88 M69.52 37.88 C45.81 37.5, 23.02 38.34, 9.47 37.88 M9.47 37.88 C4.25 37.41, 1.92 37.3, 0 28.41 M9.47 37.88 C7.59 38.03, -3.73 35.99, 0 28.41 M0 28.41 C-2.64 22.66, 0.68 18.84, 0 9.47 M0 28.41 C1.1 24.71, -0.88 18.74, 0 9.47 M0 9.47 C3.6 2.29, 2.42 1.55, 9.47 0 M0 9.47 C-2.9 5.04, 2.34 2.68, 9.47 0" stroke="#1e1e1e" stroke-width="2" fill="none"></path></g><g stroke-linecap="round" transform="translate(10 10) rotate(0 39.73868178619273 6.939812853009698)"><path d="M3.47 0 C26.46 -3.37, 57.54 1.13, 76.01 0 C75.22 0.67, 82.47 2.98, 79.48 3.47 C79.84 6.83, 78.23 9.94, 79.48 10.41 C81.49 11.48, 81.62 13.13, 76.01 13.88 C52.86 15.9, 30.34 15.13, 3.47 13.88 C-1.81 12.61, 2.48 15.51, 0 10.41 C-0.34 8.3, 0.21 7.51, 0 3.47 C-2.93 1.32, 3.1 -1.41, 3.47 0" stroke="none" stroke-width="0" fill="#ffec99"></path><path d="M3.47 0 C19.08 -2.58, 39.68 -2.43, 76.01 0 M3.47 0 C19.07 -0.82, 33.42 0.09, 76.01 0 M76.01 0 C78.34 1.59, 80.88 2.29, 79.48 3.47 M76.01 0 C78.79 -1.7, 80.23 -1.08, 79.48 3.47 M79.48 3.47 C79.75 5.03, 79.29 8.32, 79.48 10.41 M79.48 3.47 C79.44 5.62, 79.24 7.1, 79.48 10.41 M79.48 10.41 C78.41 14.33, 77.34 13.39, 76.01 13.88 M79.48 10.41 C77.98 14.36, 76.15 12.18, 76.01 13.88 M76.01 13.88 C55.72 11.77, 36.66 14.26, 3.47 13.88 M76.01 13.88 C54.26 13.94, 32.48 14.43, 3.47 13.88 M3.47 13.88 C-0.14 15.18, 0.19 10.82, 0 10.41 M3.47 13.88 C0.85 15.83, 2.03 10.85, 0 10.41 M0 10.41 C-0.14 8.94, -0.39 6.87, 0 3.47 M0 10.41 C0.15 7.92, -0.27 5.34, 0 3.47 M0 3.47 C-0.42 2.84, 2.13 -1.56, 3.47 0 M0 3.47 C0.77 1.33, 0.13 0.53, 3.47 0" stroke="#1e1e1e" stroke-width="2" fill="none"></path></g><g stroke-linecap="round"><g transform="translate(32.759977383099795 34.892456417904214) rotate(0 19.160859361901657 0)"><path d="M0.24 0.07 C6.38 0.01, 31.22 -0.21, 37.49 -0.21 M-1.09 -0.94 C5.37 -0.82, 33.44 0.82, 39.76 1.22" stroke="#1e1e1e" stroke-width="2" fill="none"></path></g></g><mask></mask></svg>