<svg version="1.1" xmlns="http://www.w3.org/2000/svg" viewBox="0 0 119.12230167429698 66.5717428675157" width="119.12230167429698" height="66.5717428675157">
  <!-- svg-source:excalidraw -->
  
  <defs>
    <style class="style-fonts">
      
    </style>
    
  </defs>
  <rect x="0" y="0" width="119.12230167429698" height="66.5717428675157" fill="transparent"></rect><g stroke-linecap="round" transform="translate(10 10) rotate(0 49.56115083714849 23.285871433757848)"><path d="M11.64 0 C31.88 -1.88, 42.74 1.74, 87.48 0 C94.79 -2.38, 96.87 2.39, 99.12 11.64 C99.67 17.99, 101.49 20.92, 99.12 34.93 C98.36 43.82, 95.07 47.08, 87.48 46.57 C64.57 43.31, 48 48.92, 11.64 46.57 C2.1 45.24, -3.5 40, 0 34.93 C2.79 25.14, 0.65 20.14, 0 11.64 C-0.59 7.31, 2.9 1.45, 11.64 0" stroke="none" stroke-width="0" fill="#ffffff"></path><path d="M11.64 0 C27.43 0.46, 42.19 -0.07, 87.48 0 M11.64 0 C35.25 1.51, 59.43 1.55, 87.48 0 M87.48 0 C94.06 -1.66, 100.2 2.3, 99.12 11.64 M87.48 0 C94.61 -1.68, 97.01 2.31, 99.12 11.64 M99.12 11.64 C100.07 15.86, 98.19 22.11, 99.12 34.93 M99.12 11.64 C99.3 20.12, 99.89 29.64, 99.12 34.93 M99.12 34.93 C99.63 42.16, 93.35 47.06, 87.48 46.57 M99.12 34.93 C100.26 42.28, 95.53 45.97, 87.48 46.57 M87.48 46.57 C61.49 45.5, 31.67 48.11, 11.64 46.57 M87.48 46.57 C72.35 45.53, 55.08 47.26, 11.64 46.57 M11.64 46.57 C4.41 47.94, 0.34 40.87, 0 34.93 M11.64 46.57 C2.71 48.87, -1.64 43.62, 0 34.93 M0 34.93 C-0.06 28.78, -1.23 24.87, 0 11.64 M0 34.93 C-0.03 30.34, 1.04 24.99, 0 11.64 M0 11.64 C1.69 4.59, 2.83 -0.51, 11.64 0 M0 11.64 C1.16 6.06, 2.99 -2.14, 11.64 0" stroke="#1e1e1e" stroke-width="2" fill="none"></path></g><g stroke-linecap="round" transform="translate(24.060619752469847 24.375294907371426) rotate(0 9.382592259703415 9.382592259703415)"><path d="M7.85 0.2 C9.67 -0.13, 12.87 0.88, 14.56 1.95 C16.25 3.02, 17.37 4.74, 17.98 6.62 C18.6 8.5, 19 11.37, 18.25 13.25 C17.5 15.12, 15.32 17.04, 13.48 17.85 C11.64 18.67, 9.07 18.55, 7.18 18.14 C5.29 17.72, 3.42 16.91, 2.15 15.35 C0.88 13.79, -0.53 10.87, -0.45 8.78 C-0.37 6.68, 1.06 4.28, 2.62 2.79 C4.18 1.3, 7.85 0.18, 8.89 -0.17 C9.94 -0.52, 9.01 0.51, 8.89 0.7 M9.49 -0.52 C11.54 -0.52, 14.27 1.28, 15.79 2.8 C17.32 4.32, 18.43 6.7, 18.61 8.6 C18.79 10.51, 17.84 12.51, 16.86 14.23 C15.88 15.95, 14.44 18.25, 12.73 18.93 C11.02 19.61, 8.56 19.11, 6.61 18.31 C4.65 17.52, 2.04 15.97, 1 14.17 C-0.04 12.37, 0.02 9.53, 0.36 7.51 C0.7 5.49, 1.46 3.24, 3.03 2.06 C4.6 0.88, 8.6 0.66, 9.77 0.43 C10.94 0.21, 10.02 0.72, 10.03 0.73" stroke="none" stroke-width="0" fill="#fa5252"></path><path d="M11.13 -0.05 C13.01 0.05, 15.26 1.49, 16.56 2.96 C17.86 4.43, 18.87 6.81, 18.94 8.79 C19.02 10.77, 18.37 13.17, 17.01 14.85 C15.65 16.53, 12.87 18.42, 10.79 18.88 C8.71 19.34, 6.26 18.7, 4.56 17.6 C2.86 16.5, 1.32 14.07, 0.58 12.27 C-0.16 10.47, -0.53 8.59, 0.11 6.79 C0.75 4.99, 2.49 2.6, 4.43 1.49 C6.37 0.38, 10.54 0.3, 11.76 0.13 C12.99 -0.04, 11.87 0.21, 11.77 0.45 M7.57 -0.15 C9.46 -0.69, 12.45 -0.04, 14.15 1.07 C15.85 2.17, 16.98 4.48, 17.75 6.47 C18.53 8.46, 19.33 11.1, 18.81 13 C18.29 14.91, 16.4 16.87, 14.62 17.92 C12.83 18.96, 10.06 19.69, 8.1 19.27 C6.13 18.86, 4.19 17.15, 2.84 15.41 C1.49 13.66, 0.13 10.74, 0 8.78 C-0.13 6.82, 0.79 5.22, 2.04 3.66 C3.3 2.09, 6.65 0.01, 7.53 -0.59 C8.42 -1.19, 7.23 -0.12, 7.37 0.08" stroke="#e03131" stroke-width="1" fill="none"></path></g></svg>