<svg version="1.1" xmlns="http://www.w3.org/2000/svg" viewBox="0 0 28.380946421169938 28.38094642116903" width="28.380946421169938" height="28.38094642116903">
  <!-- svg-source:excalidraw -->
  
  <defs>
    <style class="style-fonts">
      
    </style>
    
  </defs>
  <rect x="0" y="0" width="28.380946421169938" height="28.38094642116903" fill="transparent"></rect><g stroke-linecap="round" transform="translate(10.00000000000091 10) rotate(0 4.190473210584514 4.190473210584514)"><path d="M3.61 -0.05 C4.49 -0.18, 5.85 0.27, 6.62 0.79 C7.39 1.32, 8.07 2.3, 8.25 3.12 C8.43 3.93, 8.11 4.92, 7.69 5.69 C7.27 6.46, 6.53 7.36, 5.74 7.74 C4.95 8.12, 3.79 8.24, 2.96 8 C2.14 7.75, 1.32 6.94, 0.77 6.29 C0.23 5.63, -0.35 4.91, -0.31 4.04 C-0.26 3.16, 0.37 1.72, 1.05 1.04 C1.72 0.36, 3.28 0.1, 3.74 -0.03 C4.2 -0.17, 3.76 0.2, 3.79 0.25 M4.44 -0.3 C5.3 -0.23, 7.07 0.6, 7.71 1.38 C8.35 2.17, 8.37 3.46, 8.31 4.41 C8.24 5.35, 7.92 6.44, 7.33 7.06 C6.73 7.67, 5.64 7.99, 4.72 8.07 C3.8 8.15, 2.53 7.96, 1.8 7.54 C1.07 7.11, 0.69 6.4, 0.35 5.53 C0.01 4.66, -0.56 3.2, -0.26 2.32 C0.04 1.43, 1.22 0.56, 2.16 0.21 C3.09 -0.14, 4.84 0.16, 5.32 0.23 C5.8 0.3, 5.18 0.66, 5.04 0.63" stroke="none" stroke-width="0" fill="#fa5252"></path><path d="M3.81 -0.08 C4.6 -0.22, 5.54 0.17, 6.29 0.65 C7.04 1.13, 8.02 1.95, 8.31 2.81 C8.6 3.66, 8.41 4.94, 8.03 5.78 C7.66 6.61, 6.8 7.37, 6.06 7.83 C5.31 8.3, 4.44 8.8, 3.57 8.58 C2.71 8.36, 1.43 7.24, 0.85 6.53 C0.27 5.81, 0.05 5.14, 0.12 4.28 C0.19 3.42, 0.64 2.07, 1.28 1.35 C1.92 0.64, 3.57 0.24, 3.97 0 C4.38 -0.24, 3.79 -0.2, 3.72 -0.1 M4.42 -0.16 C5.23 -0.13, 6.26 0.45, 6.87 1.19 C7.48 1.93, 7.95 3.41, 8.11 4.28 C8.26 5.15, 8.28 5.69, 7.8 6.41 C7.33 7.13, 6.24 8.43, 5.24 8.6 C4.24 8.76, 2.65 7.9, 1.8 7.42 C0.95 6.94, 0.4 6.49, 0.15 5.7 C-0.11 4.92, -0.01 3.5, 0.25 2.72 C0.51 1.94, 1.02 1.46, 1.7 1.05 C2.38 0.64, 3.81 0.36, 4.32 0.26 C4.83 0.16, 4.68 0.46, 4.76 0.45" stroke="#e03131" stroke-width="1" fill="none"></path></g></svg>