<svg version="1.1" xmlns="http://www.w3.org/2000/svg" viewBox="0 0 140.15291981847076 104.68083932168702" width="140.15291981847076" height="104.68083932168702">
  <!-- svg-source:excalidraw -->
  
  <defs>
    <style class="style-fonts">
      
    </style>
    
  </defs>
  <rect x="0" y="0" width="140.15291981847076" height="104.68083932168702" fill="transparent"></rect><g stroke-linecap="round" transform="translate(10 10) rotate(0 42.34041966084351 42.34041966084351)"><path d="M59.19 2.25 C66.13 4.36, 73.44 11.21, 77.82 17.55 C82.21 23.9, 85.4 32.51, 85.52 40.3 C85.64 48.09, 82.62 57.72, 78.55 64.31 C74.48 70.89, 67.9 76.57, 61.11 79.8 C54.32 83.03, 45.5 84.46, 37.79 83.68 C30.08 82.89, 20.66 79.73, 14.86 75.08 C9.06 70.44, 5.12 63.1, 3 55.79 C0.87 48.48, 0.44 38.45, 2.11 31.21 C3.79 23.98, 7.64 17.33, 13.03 12.37 C18.43 7.4, 25.88 2.46, 34.48 1.42 C43.07 0.38, 58.85 4.81, 64.58 6.14 C70.31 7.47, 69.25 8.77, 68.86 9.39 M33.9 0.94 C41.02 -1.27, 52.57 -1.02, 59.74 2.04 C66.91 5.1, 72.9 12.97, 76.92 19.29 C80.95 25.61, 83.54 32.36, 83.88 39.94 C84.23 47.52, 82.77 58.26, 78.99 64.76 C75.22 71.26, 67.98 75.9, 61.23 78.94 C54.49 81.97, 45.91 83.64, 38.52 82.97 C31.12 82.31, 23.13 79.52, 16.86 74.95 C10.58 70.38, 3.6 62.75, 0.88 55.54 C-1.83 48.34, -1.74 39.25, 0.55 31.72 C2.84 24.19, 9.13 15.58, 14.63 10.36 C20.14 5.15, 30.18 1.84, 33.56 0.45 C36.95 -0.95, 34.72 1.33, 34.95 1.98" stroke="none" stroke-width="0" fill="#ffffff"></path><path d="M44.03 -0.49 C51.56 -0.88, 61.18 3.76, 67.29 8.08 C73.41 12.4, 77.89 18.5, 80.72 25.41 C83.56 32.32, 85.49 41.87, 84.31 49.54 C83.13 57.21, 78.82 65.8, 73.65 71.43 C68.47 77.07, 60.77 81.44, 53.24 83.34 C45.72 85.23, 35.93 85.38, 28.51 82.83 C21.09 80.28, 13.53 73.93, 8.75 68.01 C3.97 62.1, 0.41 54.65, -0.18 47.35 C-0.77 40.06, 1.81 31.01, 5.21 24.24 C8.61 17.46, 13.53 10.55, 20.21 6.7 C26.88 2.84, 40.58 1.98, 45.26 1.08 C49.93 0.18, 48.2 0.9, 48.27 1.29 M29.53 1.79 C36 -0.67, 45.73 -1.28, 53.47 0.85 C61.2 2.99, 70.78 8.59, 75.94 14.6 C81.09 20.61, 83.55 29.36, 84.39 36.92 C85.22 44.47, 84.13 53.13, 80.95 59.94 C77.78 66.75, 72.11 73.69, 65.35 77.8 C58.59 81.91, 48.07 84.6, 40.4 84.62 C32.74 84.64, 25.69 81.87, 19.37 77.9 C13.06 73.92, 5.46 67.6, 2.53 60.76 C-0.4 53.92, 0.2 44.8, 1.78 36.85 C3.35 28.91, 7.01 18.91, 11.98 13.08 C16.95 7.24, 28.43 3.52, 31.59 1.84 C34.74 0.16, 30.74 2.11, 30.9 2.98" stroke="#1e1e1e" stroke-width="4" fill="none"></path></g><g stroke-linecap="round" transform="translate(31.976510134550608 33.40732985096065) rotate(0 20.397666724041756 20.397666724041756)"><path d="M25.35 0.63 C29.46 1.26, 34.64 4.64, 37.15 8.07 C39.67 11.51, 40.7 16.88, 40.43 21.24 C40.15 25.59, 38.5 30.89, 35.52 34.21 C32.54 37.53, 26.95 40.58, 22.56 41.17 C18.17 41.76, 12.82 40.29, 9.19 37.75 C5.56 35.2, 2.06 30.24, 0.77 25.91 C-0.52 21.58, -0.3 15.64, 1.44 11.75 C3.17 7.86, 7.06 4.42, 11.2 2.58 C15.35 0.73, 23.66 0.87, 26.3 0.69 C28.95 0.51, 27.16 1.06, 27.06 1.49" stroke="none" stroke-width="0" fill="#1e1e1e"></path><path d="M21.44 -0.09 C25.64 -0.22, 31.52 2.13, 34.66 5.2 C37.81 8.28, 39.9 13.89, 40.31 18.37 C40.73 22.86, 39.5 28.44, 37.16 32.09 C34.82 35.75, 30.49 39.13, 26.26 40.29 C22.03 41.45, 15.82 40.86, 11.79 39.05 C7.77 37.25, 4.04 33.41, 2.13 29.46 C0.21 25.51, -0.73 19.57, 0.3 15.35 C1.34 11.13, 4.63 6.71, 8.35 4.15 C12.07 1.59, 20.08 0.57, 22.64 -0.03 C25.2 -0.62, 23.65 0.25, 23.71 0.61" stroke="#1e1e1e" stroke-width="4.5" fill="none" stroke-dasharray="8 12"></path></g><g stroke-linecap="round" transform="translate(70.18927030654186 46.87352220967023) rotate(0 24.674187764529734 7.049765475745517)"><path d="M3.52 0 C19.32 -2.22, 31.41 0.53, 45.82 0 C50.1 -0.51, 50.86 2.04, 49.35 3.52 C48.88 4.7, 48.89 6.76, 49.35 10.57 C47.66 14.57, 48.64 11.51, 45.82 14.1 C31.52 11.76, 22.1 15.81, 3.52 14.1 C1.34 15.68, 2.34 10.43, 0 10.57 C0.63 8.28, -0.69 8.23, 0 3.52 C-1.77 -1.19, 2.51 2.52, 3.52 0" stroke="none" stroke-width="0" fill="#1e1e1e"></path><path d="M3.52 0 C18.74 0.69, 34.86 0.15, 45.82 0 M3.52 0 C13.65 0.58, 23.05 -0.26, 45.82 0 M45.82 0 C47.39 -0.18, 49.14 0.26, 49.35 3.52 M45.82 0 C48.18 -0.27, 48.96 0.22, 49.35 3.52 M49.35 3.52 C49.16 6.02, 49.01 8.01, 49.35 10.57 M49.35 3.52 C49.51 6.03, 49.42 8.57, 49.35 10.57 M49.35 10.57 C50.29 13.87, 48.97 14.2, 45.82 14.1 M49.35 10.57 C48.5 11.81, 48.36 14.61, 45.82 14.1 M45.82 14.1 C30.2 14.16, 14.65 14.13, 3.52 14.1 M45.82 14.1 C36.65 14.27, 27.04 14.32, 3.52 14.1 M3.52 14.1 C1.9 14.28, -0.47 13.47, 0 10.57 M3.52 14.1 C2.15 14.78, -1.09 13.92, 0 10.57 M0 10.57 C-0.2 8.87, 0 6.49, 0 3.52 M0 10.57 C-0.03 9.12, -0.03 7.76, 0 3.52 M0 3.52 C0.35 0.53, 2.01 -0.65, 3.52 0 M0 3.52 C0.95 0.36, 0.99 -0.01, 3.52 0" stroke="#1e1e1e" stroke-width="4" fill="none"></path></g><g stroke-linecap="round" transform="translate(116.88690832144766 40.33282894929198) rotate(0 6.63300574851155 13.26256128575983)"><path d="M3.32 0 C3.92 -0.3, 6.32 -0.35, 9.95 0 C12.2 1.66, 15.61 -0.63, 13.27 3.32 C12.04 8.22, 13.83 14.35, 13.27 23.21 C11.23 25.76, 10.83 25.57, 9.95 26.53 C8.68 25.77, 7.56 25.99, 3.32 26.53 C2.88 28.41, 0.14 23.75, 0 23.21 C-0.61 16.84, 0.2 12.68, 0 3.32 C1.95 3.19, 1.88 -1.72, 3.32 0" stroke="none" stroke-width="0" fill="#1e1e1e"></path><path d="M3.32 0 C5.53 0.07, 7.32 -0.23, 9.95 0 M3.32 0 C4.81 0.07, 6.37 0.06, 9.95 0 M9.95 0 C11.24 -0.05, 12.7 2.01, 13.27 3.32 M9.95 0 C11.35 0.46, 13.14 1.4, 13.27 3.32 M13.27 3.32 C13.12 10.6, 14.1 19.24, 13.27 23.21 M13.27 3.32 C13.03 10.55, 13.43 16.43, 13.27 23.21 M13.27 23.21 C12.82 25.57, 11.19 26.55, 9.95 26.53 M13.27 23.21 C13.7 24.72, 12.61 27.54, 9.95 26.53 M9.95 26.53 C7.65 26.82, 5.68 26.67, 3.32 26.53 M9.95 26.53 C7.97 26.64, 5.95 26.63, 3.32 26.53 M3.32 26.53 C1.65 27.44, 0.04 25.9, 0 23.21 M3.32 26.53 C0.95 26.33, 1.09 26.43, 0 23.21 M0 23.21 C0.46 16.13, -0.45 10.17, 0 3.32 M0 23.21 C-0.2 18.61, -0.03 14.35, 0 3.32 M0 3.32 C0.51 0.74, 0.11 0.68, 3.32 0 M0 3.32 C0.7 1.09, 2.17 -0.95, 3.32 0" stroke="#1e1e1e" stroke-width="4" fill="none"></path></g><g stroke-linecap="round" transform="translate(37.537459777612185 39.518900573624705) rotate(0 14.327488488565677 14.327488488565677)"><path d="M12.59 -0.01 C15.59 -0.53, 20.05 0.54, 22.66 2.31 C25.26 4.08, 27.38 7.7, 28.24 10.62 C29.09 13.54, 28.99 17.13, 27.79 19.85 C26.59 22.57, 23.87 25.5, 21.03 26.94 C18.2 28.37, 13.88 29.16, 10.78 28.48 C7.68 27.79, 4.26 25.26, 2.43 22.82 C0.6 20.39, -0.51 16.94, -0.18 13.87 C0.15 10.8, 2.15 6.64, 4.39 4.4 C6.62 2.17, 11.59 1.17, 13.25 0.48 C14.9 -0.21, 14.31 0.08, 14.35 0.26" stroke="#ffffff" stroke-width="2.5" fill="none" stroke-dasharray="8 10"></path></g><g stroke-opacity="0.2" fill-opacity="0.2" transform="translate(51.38073591007333 78.92676350043303) rotate(0 0.30750821851893306 5.271592442645215)" stroke="none"><path fill="#1e1e1e" d="M 2.57,-0.38 Q 2.57,-0.38 2.75,0.62 2.93,1.62 3.13,2.82 3.32,4.01 3.45,5.39 3.58,6.76 3.47,8.69 3.36,10.61 3.27,11.09 3.18,11.57 2.95,12.00 2.71,12.42 2.34,12.75 1.98,13.08 1.53,13.27 1.09,13.47 0.60,13.51 0.11,13.55 -0.35,13.43 -0.83,13.32 -1.24,13.05 -1.65,12.79 -1.96,12.41 -2.27,12.03 -2.44,11.58 -2.61,11.12 -2.62,10.63 -2.64,10.14 -2.49,9.67 -2.35,9.21 -2.07,8.81 -1.79,8.41 -1.39,8.12 -0.99,7.84 -0.53,7.69 -0.06,7.55 0.42,7.56 0.91,7.57 1.36,7.74 1.82,7.90 2.21,8.21 2.59,8.51 2.85,8.93 3.12,9.34 3.24,9.81 3.36,10.28 3.32,10.77 3.28,11.26 3.09,11.71 2.90,12.16 2.57,12.52 2.25,12.89 1.82,13.13 1.40,13.37 0.92,13.46 0.44,13.56 -0.04,13.49 -0.52,13.43 -0.96,13.21 -1.40,13.00 -1.74,12.65 -2.09,12.31 -2.31,11.87 -2.53,11.43 -2.59,10.95 -2.66,10.47 -2.66,10.47 -2.66,10.47 -2.51,8.65 -2.36,6.84 -2.30,5.75 -2.25,4.66 -2.29,3.54 -2.33,2.41 -2.45,1.40 -2.57,0.38 -2.58,0.07 -2.58,-0.24 -2.52,-0.54 -2.45,-0.85 -2.31,-1.13 -2.18,-1.41 -1.97,-1.65 -1.77,-1.89 -1.52,-2.08 -1.27,-2.26 -0.98,-2.38 -0.69,-2.50 -0.38,-2.55 -0.07,-2.59 0.23,-2.57 0.55,-2.54 0.84,-2.43 1.14,-2.33 1.40,-2.16 1.66,-1.99 1.88,-1.76 2.09,-1.53 2.25,-1.26 2.40,-0.98 2.48,-0.68 2.57,-0.38 2.57,-0.38 L 2.57,-0.38 Z"></path></g><g stroke-opacity="0.2" fill-opacity="0.2" transform="translate(31.348681946752095 67.43908429885232) rotate(0 -3.6901137043751078 2.6797271638210987)" stroke="none"><path fill="#1e1e1e" d="M 1.38,2.11 Q 1.38,2.11 0.60,2.67 -0.18,3.24 -1.27,4.12 -2.37,4.99 -4.27,6.53 -6.18,8.07 -6.65,8.19 -7.11,8.31 -7.59,8.27 -8.07,8.24 -8.51,8.05 -8.95,7.87 -9.31,7.55 -9.67,7.23 -9.91,6.82 -10.15,6.40 -10.25,5.93 -10.34,5.46 -10.28,4.98 -10.22,4.51 -10.01,4.07 -9.80,3.64 -9.46,3.30 -9.12,2.96 -8.70,2.74 -8.27,2.53 -7.79,2.46 -7.32,2.39 -6.85,2.48 -6.37,2.56 -5.95,2.79 -5.54,3.03 -5.21,3.38 -4.89,3.74 -4.70,4.18 -4.50,4.62 -4.46,5.09 -4.42,5.57 -4.53,6.04 -4.64,6.51 -4.90,6.91 -5.15,7.32 -5.52,7.62 -5.90,7.93 -6.34,8.09 -6.79,8.26 -7.27,8.28 -7.75,8.30 -8.21,8.16 -8.67,8.02 -9.06,7.75 -9.46,7.47 -9.74,7.08 -10.02,6.69 -10.17,6.24 -10.31,5.78 -10.30,5.30 -10.29,4.82 -10.13,4.37 -9.97,3.91 -9.67,3.54 -9.37,3.16 -8.97,2.90 -8.57,2.64 -8.57,2.64 -8.57,2.64 -7.75,2.11 -6.94,1.59 -5.91,0.82 -4.88,0.04 -3.96,-0.53 -3.04,-1.12 -2.21,-1.61 -1.38,-2.11 -1.11,-2.24 -0.84,-2.38 -0.54,-2.45 -0.24,-2.51 0.05,-2.51 0.36,-2.50 0.65,-2.42 0.95,-2.34 1.21,-2.19 1.48,-2.04 1.70,-1.83 1.93,-1.63 2.09,-1.37 2.26,-1.12 2.36,-0.83 2.46,-0.54 2.49,-0.24 2.52,0.05 2.48,0.36 2.44,0.66 2.32,0.94 2.21,1.22 2.03,1.47 1.85,1.72 1.62,1.91 1.38,2.11 1.38,2.11 L 1.38,2.11 Z"></path></g><g stroke-opacity="0.2" fill-opacity="0.2" transform="translate(72.37924379565584 69.35003588899417) rotate(0 3.2068867432444677 2.1964968511022107)" stroke="none"><path fill="#1e1e1e" d="M 1.49,-2.05 Q 1.49,-2.05 2.34,-1.47 3.20,-0.89 4.19,-0.29 5.18,0.30 6.98,1.63 8.78,2.95 8.94,3.37 9.11,3.79 9.14,4.23 9.16,4.68 9.04,5.11 8.92,5.54 8.67,5.92 8.42,6.29 8.07,6.56 7.71,6.83 7.29,6.98 6.86,7.12 6.42,7.12 5.97,7.12 5.54,6.98 5.12,6.84 4.76,6.57 4.40,6.30 4.15,5.93 3.90,5.56 3.78,5.13 3.66,4.69 3.68,4.25 3.70,3.80 3.87,3.38 4.03,2.97 4.32,2.62 4.61,2.28 4.99,2.05 5.38,1.82 5.81,1.72 6.25,1.62 6.70,1.67 7.14,1.72 7.55,1.91 7.96,2.09 8.28,2.40 8.61,2.71 8.82,3.10 9.03,3.50 9.10,3.94 9.18,4.38 9.11,4.82 9.03,5.27 8.83,5.66 8.62,6.06 8.29,6.37 7.97,6.68 7.56,6.87 7.16,7.05 6.71,7.10 6.27,7.15 5.83,7.06 5.39,6.96 5.01,6.73 4.62,6.50 4.33,6.16 4.04,5.82 4.04,5.82 4.04,5.82 2.95,5.27 1.86,4.71 0.99,4.01 0.13,3.32 -0.67,2.68 -1.49,2.05 -1.71,1.84 -1.93,1.63 -2.10,1.37 -2.27,1.12 -2.37,0.83 -2.47,0.54 -2.50,0.24 -2.53,-0.06 -2.49,-0.36 -2.44,-0.66 -2.33,-0.95 -2.21,-1.23 -2.03,-1.48 -1.85,-1.72 -1.62,-1.92 -1.38,-2.12 -1.11,-2.25 -0.84,-2.39 -0.54,-2.45 -0.24,-2.52 0.06,-2.51 0.36,-2.50 0.66,-2.42 0.95,-2.34 1.22,-2.19 1.49,-2.05 1.49,-2.05 L 1.49,-2.05 Z"></path></g><g stroke-opacity="0.2" fill-opacity="0.2" transform="translate(73.25784253609663 41.762037450104344) rotate(0 4.876222339129072 -3.690114542272113)" stroke="none"><path fill="#1e1e1e" d="M -1.45,-2.06 Q -1.45,-2.06 -0.62,-2.70 0.21,-3.33 1.07,-4.01 1.92,-4.68 2.86,-5.41 3.80,-6.13 4.58,-6.87 5.37,-7.60 6.08,-8.07 6.80,-8.55 7.07,-8.99 7.33,-9.43 7.72,-9.76 8.11,-10.10 8.59,-10.28 9.07,-10.47 9.58,-10.50 10.09,-10.53 10.59,-10.39 11.08,-10.25 11.51,-9.96 11.93,-9.68 12.24,-9.27 12.55,-8.86 12.72,-8.37 12.88,-7.89 12.88,-7.37 12.88,-6.86 12.71,-6.37 12.55,-5.89 12.24,-5.48 11.93,-5.07 11.50,-4.78 11.08,-4.49 10.58,-4.36 10.09,-4.22 9.57,-4.25 9.06,-4.28 8.59,-4.47 8.11,-4.66 7.72,-4.99 7.33,-5.32 7.06,-5.76 6.80,-6.20 6.69,-6.71 6.58,-7.21 6.64,-7.72 6.69,-8.23 6.91,-8.69 7.12,-9.16 7.48,-9.53 7.83,-9.90 8.28,-10.14 8.74,-10.38 9.24,-10.47 9.75,-10.55 10.26,-10.46 10.76,-10.38 11.22,-10.14 11.67,-9.90 12.02,-9.53 12.38,-9.15 12.59,-8.69 12.81,-8.22 12.86,-7.71 12.92,-7.20 12.80,-6.70 12.69,-6.20 12.69,-6.20 12.69,-6.20 10.42,-4.11 8.15,-2.03 6.82,-1.19 5.49,-0.35 4.35,0.27 3.21,0.91 2.33,1.49 1.45,2.06 1.19,2.21 0.92,2.35 0.62,2.43 0.33,2.50 0.02,2.51 -0.27,2.51 -0.57,2.44 -0.87,2.37 -1.14,2.23 -1.41,2.09 -1.64,1.89 -1.87,1.69 -2.05,1.44 -2.22,1.19 -2.33,0.91 -2.45,0.63 -2.49,0.32 -2.53,0.02 -2.49,-0.27 -2.46,-0.58 -2.35,-0.86 -2.25,-1.15 -2.08,-1.40 -1.91,-1.65 -1.68,-1.86 -1.45,-2.06 -1.45,-2.06 L -1.45,-2.06 Z"></path></g><g stroke-opacity="0.2" fill-opacity="0.2" transform="translate(54.14831993150892 27.704457603052106) rotate(0 0.2635806276086896 -5.666961708263898)" stroke="none"><path fill="#1e1e1e" d="M -2.55,0 Q -2.55,0 -2.59,-0.75 -2.64,-1.51 -2.68,-2.62 -2.73,-3.73 -2.82,-4.89 -2.92,-6.05 -2.85,-7.17 -2.79,-8.28 -2.71,-9.81 -2.63,-11.33 -2.55,-11.83 -2.46,-12.34 -2.22,-12.79 -1.99,-13.24 -1.61,-13.59 -1.24,-13.95 -0.78,-14.16 -0.31,-14.38 0.18,-14.43 0.69,-14.49 1.19,-14.38 1.69,-14.27 2.13,-14.00 2.57,-13.74 2.90,-13.35 3.23,-12.96 3.42,-12.48 3.61,-12.01 3.64,-11.50 3.67,-10.99 3.53,-10.49 3.39,-10.00 3.10,-9.58 2.82,-9.15 2.41,-8.84 2.00,-8.53 1.52,-8.37 1.03,-8.21 0.52,-8.21 0.01,-8.21 -0.46,-8.37 -0.95,-8.54 -1.36,-8.85 -1.76,-9.15 -2.05,-9.58 -2.34,-10.00 -2.47,-10.49 -2.61,-10.99 -2.58,-11.50 -2.56,-12.01 -2.37,-12.48 -2.18,-12.96 -1.85,-13.35 -1.51,-13.74 -1.08,-14.00 -0.64,-14.27 -0.14,-14.38 0.35,-14.49 0.86,-14.43 1.37,-14.38 1.83,-14.16 2.30,-13.95 2.67,-13.59 3.04,-13.24 3.28,-12.79 3.52,-12.34 3.60,-11.83 3.68,-11.33 3.68,-11.33 3.68,-11.33 3.39,-8.69 3.09,-6.05 3.01,-4.93 2.92,-3.80 2.78,-2.66 2.64,-1.51 2.59,-0.75 2.55,0 2.51,0.30 2.47,0.61 2.36,0.89 2.25,1.18 2.08,1.43 1.90,1.69 1.67,1.89 1.44,2.09 1.17,2.24 0.90,2.38 0.60,2.45 0.30,2.53 -0.00,2.53 -0.30,2.53 -0.60,2.45 -0.90,2.38 -1.17,2.24 -1.44,2.09 -1.67,1.89 -1.90,1.69 -2.08,1.43 -2.25,1.18 -2.36,0.89 -2.47,0.61 -2.51,0.30 -2.55,-0.00 -2.55,-0.00 L -2.55,0 Z"></path></g><g stroke-opacity="0.2" fill-opacity="0.2" transform="translate(29.283976247351347 42.201336820326105) rotate(0 -4.34906443549994 -2.2843570603049557)" stroke="none"><path fill="#1e1e1e" d="M -0.70,2.43 Q -0.70,2.43 -1.33,2.29 -1.95,2.16 -3.04,1.77 -4.13,1.38 -5.43,0.59 -6.73,-0.18 -7.66,-0.95 -8.59,-1.73 -8.72,-1.59 -8.86,-1.46 -9.35,-1.57 -9.84,-1.67 -10.28,-1.93 -10.71,-2.19 -11.03,-2.58 -11.36,-2.96 -11.54,-3.43 -11.73,-3.90 -11.76,-4.40 -11.78,-4.90 -11.65,-5.38 -11.52,-5.87 -11.23,-6.29 -10.95,-6.70 -10.55,-7.01 -10.15,-7.31 -9.67,-7.47 -9.20,-7.63 -8.69,-7.63 -8.19,-7.63 -7.71,-7.47 -7.24,-7.31 -6.84,-7.01 -6.44,-6.70 -6.15,-6.29 -5.87,-5.87 -5.74,-5.38 -5.60,-4.90 -5.63,-4.40 -5.66,-3.89 -5.84,-3.43 -6.03,-2.96 -6.35,-2.58 -6.68,-2.19 -7.11,-1.93 -7.54,-1.67 -8.03,-1.57 -8.53,-1.46 -9.03,-1.51 -9.53,-1.57 -9.98,-1.78 -10.44,-1.99 -10.80,-2.34 -11.17,-2.68 -11.40,-3.13 -11.64,-3.57 -11.72,-4.07 -11.80,-4.56 -11.72,-5.06 -11.64,-5.56 -11.40,-6.00 -11.17,-6.45 -10.80,-6.79 -10.44,-7.14 -9.98,-7.35 -9.52,-7.56 -9.02,-7.61 -8.52,-7.67 -8.52,-7.67 -8.52,-7.67 -5.75,-6.18 -2.98,-4.70 -1.72,-3.78 -0.47,-2.87 0.11,-2.65 0.70,-2.43 0.98,-2.31 1.27,-2.19 1.51,-2.00 1.75,-1.82 1.95,-1.58 2.14,-1.34 2.27,-1.07 2.40,-0.79 2.46,-0.49 2.52,-0.19 2.51,0.10 2.49,0.41 2.41,0.70 2.32,0.99 2.17,1.26 2.02,1.52 1.80,1.74 1.59,1.96 1.33,2.12 1.08,2.28 0.79,2.38 0.50,2.48 0.19,2.50 -0.10,2.52 -0.40,2.48 -0.70,2.43 -0.70,2.43 L -0.70,2.43 Z"></path></g></svg>