<svg version="1.1" xmlns="http://www.w3.org/2000/svg" viewBox="0 0 101.56626300303606 86.90688332617628" width="101.56626300303606" height="86.90688332617628">
  <!-- svg-source:excalidraw -->
  
  <defs>
    <style class="style-fonts">
      
    </style>
    
  </defs>
  <rect x="0" y="0" width="101.56626300303606" height="86.90688332617628" fill="transparent"></rect><g transform="translate(10 28.0423035216254) rotate(0 1.503524098573962 9.397034577798195)" stroke="none"><path fill="#1e1e1e" d="M 4.78,-0.82 Q 4.78,-0.82 5.26,2.99 5.73,6.80 6.13,8.90 6.53,11.01 7.04,13.07 7.56,15.14 7.85,16.71 8.14,18.28 8.09,19.11 8.03,19.95 7.72,20.72 7.40,21.49 6.85,22.12 6.31,22.76 5.59,23.18 4.87,23.60 4.05,23.78 3.23,23.95 2.40,23.85 1.57,23.75 0.82,23.39 0.06,23.03 -0.53,22.45 -1.13,21.87 -1.51,21.13 -1.90,20.39 -2.02,19.56 -2.15,18.74 -2.01,17.92 -1.86,17.09 -1.47,16.36 -1.07,15.62 -0.45,15.06 0.15,14.49 0.91,14.14 1.67,13.80 2.50,13.72 3.33,13.64 4.15,13.82 4.96,14.01 5.67,14.45 6.38,14.89 6.92,15.53 7.45,16.17 7.75,16.95 8.05,17.73 8.09,18.56 8.13,19.40 7.90,20.20 7.67,21.00 7.19,21.69 6.71,22.38 6.04,22.88 5.37,23.37 4.58,23.63 3.79,23.89 2.95,23.88 2.12,23.88 1.33,23.60 0.54,23.33 -0.11,22.81 -0.77,22.30 -1.23,21.61 -1.69,20.91 -1.91,20.10 -2.13,19.30 -2.13,19.30 -2.13,19.30 -2.35,17.19 -2.58,15.08 -2.86,11.70 -3.13,8.32 -3.96,4.57 -4.78,0.82 -4.81,0.23 -4.84,-0.34 -4.73,-0.92 -4.62,-1.49 -4.37,-2.02 -4.12,-2.56 -3.76,-3.01 -3.39,-3.47 -2.93,-3.83 -2.46,-4.18 -1.92,-4.41 -1.39,-4.65 -0.81,-4.75 -0.23,-4.85 0.34,-4.80 0.93,-4.76 1.48,-4.58 2.04,-4.40 2.54,-4.09 3.03,-3.78 3.44,-3.37 3.85,-2.95 4.15,-2.44 4.45,-1.94 4.62,-1.38 4.78,-0.82 4.78,-0.82 L 4.78,-0.82 Z"></path></g><g transform="translate(28.41819350797914 10) rotate(0 1.1276412815884669 9.209089584621097)" stroke="none"><path fill="#1e1e1e" d="M 4.97,-0.73 Q 4.97,-0.73 5.38,2.18 5.79,5.10 6.34,8.60 6.90,12.09 7.35,14.97 7.80,17.84 7.74,18.75 7.69,19.65 7.35,20.48 7.01,21.32 6.42,22.00 5.83,22.69 5.06,23.15 4.28,23.61 3.40,23.80 2.52,23.98 1.62,23.88 0.72,23.78 -0.08,23.39 -0.90,23.01 -1.55,22.38 -2.20,21.76 -2.62,20.96 -3.04,20.16 -3.18,19.27 -3.32,18.38 -3.16,17.49 -3.01,16.60 -2.59,15.80 -2.16,15.01 -1.50,14.39 -0.84,13.78 -0.02,13.40 0.79,13.03 1.69,12.94 2.59,12.85 3.47,13.05 4.35,13.25 5.12,13.72 5.89,14.19 6.47,14.88 7.05,15.57 7.38,16.41 7.70,17.25 7.75,18.15 7.79,19.05 7.54,19.92 7.30,20.79 6.79,21.53 6.27,22.27 5.55,22.82 4.83,23.36 3.97,23.64 3.12,23.92 2.21,23.92 1.31,23.91 0.46,23.62 -0.38,23.32 -1.10,22.77 -1.81,22.22 -2.31,21.47 -2.82,20.72 -3.05,19.85 -3.29,18.98 -3.29,18.98 -3.29,18.98 -3.49,16.17 -3.69,13.36 -3.88,9.96 -4.06,6.56 -4.51,3.65 -4.97,0.73 -4.98,0.13 -5.00,-0.47 -4.87,-1.06 -4.74,-1.65 -4.47,-2.20 -4.20,-2.74 -3.81,-3.20 -3.42,-3.67 -2.94,-4.02 -2.45,-4.38 -1.89,-4.61 -1.33,-4.84 -0.73,-4.93 -0.13,-5.02 0.47,-4.96 1.07,-4.90 1.64,-4.70 2.21,-4.50 2.72,-4.17 3.23,-3.84 3.64,-3.40 4.05,-2.96 4.35,-2.43 4.65,-1.90 4.81,-1.32 4.97,-0.73 4.97,-0.73 L 4.97,-0.73 Z"></path></g><g transform="translate(46.83637267722179 20.90055150700391) rotate(0 2.2552897325451795 11.840262134151999)" stroke="none"><path fill="#1e1e1e" d="M 4.79,-0.58 Q 4.79,-0.58 5.05,3.87 5.30,8.34 5.93,10.39 6.55,12.44 7.37,15.37 8.20,18.30 8.84,20.50 9.48,22.71 9.51,23.53 9.53,24.35 9.29,25.13 9.05,25.92 8.58,26.58 8.10,27.25 7.43,27.73 6.77,28.21 5.99,28.46 5.20,28.70 4.38,28.68 3.56,28.66 2.79,28.38 2.02,28.10 1.38,27.58 0.74,27.07 0.30,26.38 -0.14,25.69 -0.34,24.89 -0.54,24.10 -0.47,23.28 -0.41,22.46 -0.09,21.71 0.23,20.95 0.77,20.34 1.32,19.73 2.03,19.33 2.75,18.92 3.55,18.76 4.36,18.61 5.17,18.72 5.98,18.83 6.72,19.19 7.45,19.55 8.04,20.13 8.62,20.71 8.98,21.44 9.35,22.18 9.46,22.99 9.57,23.80 9.42,24.61 9.27,25.41 8.87,26.13 8.46,26.84 7.86,27.39 7.25,27.94 6.49,28.27 5.74,28.59 4.92,28.66 4.11,28.73 3.31,28.53 2.51,28.34 1.82,27.90 1.13,27.46 0.61,26.82 0.10,26.18 -0.18,25.41 -0.46,24.64 -0.46,24.64 -0.46,24.64 -0.95,22.58 -1.43,20.51 -1.80,17.52 -2.17,14.53 -2.66,11.95 -3.14,9.38 -3.97,4.98 -4.79,0.58 -4.79,0.00 -4.79,-0.58 -4.66,-1.14 -4.52,-1.71 -4.25,-2.22 -3.98,-2.74 -3.59,-3.18 -3.20,-3.61 -2.72,-3.94 -2.24,-4.27 -1.70,-4.48 -1.15,-4.69 -0.58,-4.76 -0.00,-4.83 0.57,-4.76 1.15,-4.69 1.69,-4.48 2.24,-4.28 2.72,-3.95 3.20,-3.62 3.59,-3.18 3.97,-2.74 4.24,-2.23 4.51,-1.71 4.65,-1.15 4.79,-0.58 4.79,-0.58 L 4.79,-0.58 Z"></path></g><g transform="translate(63.375159269641244 14.134689478736163) rotate(0 0 2.067344739368309)" stroke="none"><path fill="#1e1e1e" d="M 4.56,0 Q 4.56,0 4.67,2.06 4.78,4.13 4.65,4.89 4.53,5.66 4.16,6.34 3.80,7.02 3.24,7.56 2.68,8.09 1.98,8.41 1.27,8.74 0.50,8.82 -0.25,8.90 -1.01,8.74 -1.76,8.57 -2.43,8.17 -3.09,7.77 -3.59,7.18 -4.09,6.59 -4.38,5.88 -4.66,5.16 -4.71,4.38 -4.75,3.61 -4.54,2.87 -4.33,2.12 -3.90,1.48 -3.47,0.84 -2.85,0.37 -2.23,-0.08 -1.50,-0.33 -0.77,-0.58 0.00,-0.58 0.77,-0.58 1.50,-0.33 2.24,-0.08 2.85,0.37 3.47,0.84 3.90,1.48 4.33,2.12 4.54,2.87 4.75,3.61 4.71,4.39 4.66,5.16 4.38,5.88 4.09,6.60 3.59,7.18 3.09,7.77 2.43,8.17 1.76,8.57 1.01,8.74 0.25,8.90 -0.51,8.82 -1.28,8.74 -1.98,8.41 -2.68,8.09 -3.24,7.55 -3.80,7.02 -4.16,6.34 -4.53,5.66 -4.65,4.89 -4.78,4.13 -4.78,4.13 -4.78,4.13 -4.67,2.06 -4.56,0 -4.49,-0.54 -4.42,-1.09 -4.23,-1.60 -4.03,-2.11 -3.72,-2.57 -3.41,-3.02 -3.00,-3.38 -2.59,-3.75 -2.10,-4.00 -1.61,-4.26 -1.08,-4.39 -0.54,-4.52 0.00,-4.52 0.55,-4.52 1.08,-4.39 1.61,-4.26 2.10,-4.00 2.59,-3.75 3.00,-3.38 3.41,-3.02 3.72,-2.57 4.03,-2.11 4.23,-1.60 4.42,-1.09 4.49,-0.54 4.56,0.00 4.56,0.00 L 4.56,0 Z"></path></g><g transform="translate(75.0274764106166 28.79406915559639) rotate(0 0.18793782380862467 6.76586202826752)" stroke="none"><path fill="#1e1e1e" d="M 4.89,-0.20 Q 4.89,-0.20 5.04,2.38 5.18,4.98 5.41,9.22 5.64,13.46 5.51,14.30 5.38,15.15 4.99,15.90 4.60,16.66 3.99,17.25 3.38,17.85 2.61,18.22 1.84,18.58 1.00,18.69 0.15,18.79 -0.67,18.62 -1.51,18.44 -2.24,18.01 -2.98,17.58 -3.54,16.94 -4.10,16.30 -4.42,15.51 -4.75,14.72 -4.81,13.87 -4.86,13.02 -4.64,12.20 -4.43,11.38 -3.96,10.66 -3.49,9.95 -2.82,9.43 -2.14,8.90 -1.34,8.62 -0.54,8.34 0.31,8.33 1.16,8.32 1.97,8.58 2.78,8.84 3.46,9.35 4.15,9.86 4.64,10.56 5.12,11.26 5.36,12.07 5.60,12.89 5.56,13.74 5.53,14.59 5.22,15.39 4.92,16.19 4.37,16.84 3.83,17.50 3.11,17.95 2.38,18.40 1.55,18.59 0.72,18.78 -0.12,18.70 -0.97,18.62 -1.74,18.27 -2.52,17.92 -3.15,17.34 -3.77,16.77 -4.18,16.02 -4.59,15.27 -4.74,14.43 -4.89,13.59 -4.89,13.59 -4.89,13.59 -4.82,9.49 -4.75,5.39 -4.82,2.79 -4.89,0.20 -4.84,-0.38 -4.79,-0.97 -4.61,-1.53 -4.42,-2.09 -4.11,-2.59 -3.79,-3.09 -3.37,-3.50 -2.94,-3.91 -2.43,-4.20 -1.92,-4.50 -1.35,-4.66 -0.79,-4.83 -0.20,-4.85 0.38,-4.88 0.96,-4.76 1.54,-4.64 2.07,-4.39 2.61,-4.14 3.06,-3.76 3.52,-3.39 3.88,-2.92 4.23,-2.45 4.47,-1.91 4.70,-1.36 4.79,-0.78 4.89,-0.20 4.89,-0.20 L 4.89,-0.20 Z"></path></g><g transform="translate(91.56626300303606 48.71577959278147) rotate(0 0 2.631165380162429)" stroke="none"><path fill="#1e1e1e" d="M 4.72,0 Q 4.72,0 4.78,2.63 4.85,5.26 4.72,6.03 4.60,6.81 4.23,7.50 3.86,8.20 3.29,8.74 2.72,9.28 2.01,9.61 1.29,9.94 0.51,10.02 -0.26,10.11 -1.03,9.94 -1.79,9.77 -2.47,9.36 -3.14,8.96 -3.65,8.36 -4.16,7.76 -4.45,7.03 -4.74,6.30 -4.78,5.52 -4.82,4.73 -4.61,3.98 -4.40,3.22 -3.96,2.57 -3.52,1.92 -2.89,1.44 -2.27,0.97 -1.52,0.72 -0.78,0.47 0.00,0.47 0.78,0.47 1.53,0.72 2.27,0.97 2.90,1.44 3.52,1.92 3.96,2.57 4.40,3.22 4.61,3.98 4.82,4.73 4.78,5.52 4.74,6.30 4.45,7.03 4.15,7.76 3.65,8.36 3.14,8.96 2.46,9.36 1.79,9.77 1.02,9.94 0.26,10.11 -0.51,10.02 -1.30,9.94 -2.01,9.61 -2.72,9.28 -3.29,8.73 -3.86,8.19 -4.23,7.50 -4.60,6.81 -4.72,6.03 -4.85,5.26 -4.85,5.26 -4.85,5.26 -4.78,2.63 -4.72,0 -4.65,-0.56 -4.58,-1.13 -4.38,-1.66 -4.18,-2.19 -3.85,-2.66 -3.53,-3.13 -3.11,-3.51 -2.68,-3.88 -2.17,-4.15 -1.67,-4.41 -1.12,-4.55 -0.56,-4.69 0.00,-4.69 0.56,-4.69 1.12,-4.55 1.67,-4.41 2.17,-4.15 2.68,-3.88 3.11,-3.51 3.53,-3.13 3.86,-2.66 4.18,-2.19 4.38,-1.66 4.58,-1.13 4.65,-0.56 4.72,0.00 4.72,0.00 L 4.72,0 Z"></path></g><g transform="translate(56.9851728889912 56.60928290263746) rotate(0 1.503524098573962 10.148800211769412)" stroke="none"><path fill="#1e1e1e" d="M 5.12,-1.13 Q 5.12,-1.13 5.61,0.79 6.11,2.72 6.80,6.20 7.48,9.68 7.92,12.05 8.36,14.43 8.70,17.28 9.04,20.13 8.91,21.10 8.77,22.07 8.34,22.94 7.91,23.82 7.21,24.51 6.52,25.20 5.65,25.63 4.77,26.07 3.80,26.20 2.84,26.33 1.88,26.14 0.92,25.96 0.07,25.48 -0.77,25.00 -1.43,24.27 -2.08,23.54 -2.46,22.65 -2.85,21.75 -2.93,20.77 -3.01,19.80 -2.77,18.85 -2.53,17.90 -2.01,17.08 -1.48,16.26 -0.72,15.65 0.03,15.03 0.95,14.70 1.87,14.36 2.84,14.34 3.82,14.31 4.75,14.60 5.69,14.88 6.48,15.45 7.27,16.02 7.84,16.82 8.41,17.61 8.70,18.55 8.99,19.48 8.96,20.46 8.93,21.43 8.59,22.35 8.26,23.27 7.64,24.03 7.03,24.79 6.21,25.32 5.39,25.84 4.44,26.08 3.49,26.31 2.52,26.23 1.54,26.15 0.64,25.77 -0.24,25.38 -0.97,24.73 -1.70,24.07 -2.18,23.22 -2.66,22.37 -2.84,21.41 -3.02,20.45 -3.02,20.45 -3.02,20.45 -3.07,19.05 -3.12,17.65 -3.39,14.52 -3.66,11.38 -4.02,8.21 -4.38,5.05 -4.75,3.09 -5.12,1.13 -5.18,0.50 -5.24,-0.12 -5.15,-0.74 -5.06,-1.37 -4.82,-1.95 -4.58,-2.54 -4.21,-3.05 -3.84,-3.56 -3.36,-3.97 -2.88,-4.38 -2.31,-4.66 -1.74,-4.94 -1.12,-5.08 -0.51,-5.22 0.12,-5.20 0.75,-5.19 1.36,-5.02 1.97,-4.86 2.52,-4.55 3.08,-4.24 3.54,-3.81 4.00,-3.38 4.35,-2.85 4.70,-2.33 4.91,-1.73 5.12,-1.13 5.12,-1.13 L 5.12,-1.13 Z"></path></g><g transform="translate(35.93582117021788 52.47459342390084) rotate(0 1.503524098573962 8.081462641769576)" stroke="none"><path fill="#1e1e1e" d="M 5.00,-0.91 Q 5.00,-0.91 5.48,1.45 5.95,3.82 6.60,6.19 7.26,8.56 8.01,12.24 8.75,15.93 8.64,16.86 8.53,17.78 8.12,18.62 7.72,19.46 7.07,20.13 6.42,20.79 5.59,21.22 4.76,21.64 3.84,21.78 2.92,21.91 2.00,21.75 1.08,21.59 0.27,21.14 -0.54,20.69 -1.17,20.00 -1.80,19.32 -2.18,18.47 -2.56,17.61 -2.64,16.69 -2.73,15.76 -2.52,14.85 -2.30,13.95 -1.81,13.16 -1.32,12.37 -0.60,11.77 0.11,11.18 0.98,10.85 1.85,10.52 2.78,10.48 3.71,10.44 4.60,10.71 5.50,10.97 6.26,11.50 7.02,12.04 7.58,12.79 8.13,13.54 8.41,14.43 8.70,15.31 8.68,16.24 8.67,17.17 8.36,18.05 8.05,18.93 7.47,19.66 6.90,20.40 6.12,20.91 5.34,21.42 4.44,21.65 3.54,21.89 2.61,21.83 1.68,21.76 0.82,21.40 -0.03,21.05 -0.73,20.43 -1.43,19.82 -1.90,19.01 -2.37,18.21 -2.55,17.29 -2.74,16.38 -2.74,16.38 -2.74,16.38 -3.09,13.73 -3.43,11.08 -3.83,8.38 -4.22,5.68 -4.61,3.29 -5.00,0.91 -5.04,0.29 -5.07,-0.31 -4.96,-0.91 -4.85,-1.52 -4.60,-2.08 -4.35,-2.63 -3.97,-3.12 -3.59,-3.60 -3.11,-3.98 -2.62,-4.35 -2.06,-4.61 -1.50,-4.86 -0.90,-4.97 -0.29,-5.08 0.31,-5.04 0.92,-5.00 1.51,-4.82 2.09,-4.63 2.62,-4.31 3.14,-4.00 3.57,-3.56 4.01,-3.13 4.32,-2.60 4.64,-2.08 4.82,-1.49 5.00,-0.90 5.00,-0.91 L 5.00,-0.91 Z"></path></g></svg>