<svg version="1.1" xmlns="http://www.w3.org/2000/svg" viewBox="0 0 51.197746856102185 28.153951032177247" width="10.197746856102185" height="20.153951032177247">
  <!-- svg-source:excalidraw -->
  
  <defs>
    <style class="style-fonts">
      
    </style>
    
  </defs>
  <rect x="0" y="0" width="52.197746856102185" height="1.153951032177247" fill="transparent"></rect><g transform="translate(10 17.090394553867554) rotate(0 15.598873428051093 -3.013419037778931)" stroke="none"><path fill="#1e1e1e" d="M -1.13,-2.27 Q -1.13,-2.27 0.08,-2.88 1.30,-3.49 2.24,-4.41 3.18,-5.33 4.26,-6.09 5.35,-6.85 6.75,-7.78 8.16,-8.71 9.91,-9.11 11.65,-9.50 13.28,-9.91 14.90,-10.32 16.14,-10.40 17.39,-10.48 18.65,-10.51 19.92,-10.54 21.15,-10.58 22.39,-10.61 24.09,-9.93 25.80,-9.25 26.67,-8.46 27.55,-7.68 28.62,-6.58 29.69,-5.48 30.62,-4.22 31.54,-2.97 32.08,-2.67 32.62,-2.37 33.13,-2.05 33.64,-1.73 34.02,-1.27 34.41,-0.81 34.62,-0.24 34.84,0.31 34.86,0.91 34.89,1.51 34.72,2.09 34.55,2.67 34.20,3.16 33.86,3.65 33.38,4.01 32.89,4.37 32.32,4.55 31.75,4.74 31.14,4.73 30.54,4.72 29.97,4.52 29.41,4.32 28.93,3.95 28.46,3.58 28.13,3.08 27.79,2.57 27.64,1.99 27.49,1.41 27.53,0.81 27.57,0.21 27.80,-0.34 28.03,-0.89 28.43,-1.35 28.82,-1.80 29.34,-2.10 29.86,-2.41 30.45,-2.53 31.04,-2.65 31.64,-2.58 32.24,-2.50 32.78,-2.24 33.32,-1.98 33.75,-1.56 34.19,-1.14 34.46,-0.61 34.73,-0.07 34.82,0.51 34.91,1.11 34.81,1.70 34.70,2.29 34.41,2.82 34.12,3.35 33.68,3.76 33.24,4.17 32.69,4.41 32.14,4.66 31.54,4.71 30.94,4.77 30.35,4.63 29.77,4.50 29.77,4.50 29.77,4.50 27.98,2.98 26.19,1.47 25.35,0.23 24.52,-0.99 23.67,-1.84 22.83,-2.68 21.79,-3.60 20.76,-4.51 21.76,-4.03 22.76,-3.55 21.63,-3.58 20.49,-3.61 19.26,-3.64 18.02,-3.66 16.84,-3.74 15.65,-3.82 14.04,-3.45 12.42,-3.09 11.23,-3.03 10.04,-2.97 9.09,-2.45 8.14,-1.93 7.14,-1.28 6.14,-0.64 4.86,0.20 3.59,1.05 2.36,1.66 1.13,2.27 0.84,2.37 0.56,2.48 0.25,2.51 -0.05,2.54 -0.35,2.50 -0.65,2.45 -0.94,2.34 -1.22,2.22 -1.47,2.05 -1.72,1.87 -1.92,1.63 -2.12,1.40 -2.25,1.12 -2.39,0.85 -2.46,0.55 -2.53,0.25 -2.52,-0.04 -2.51,-0.35 -2.44,-0.65 -2.36,-0.94 -2.21,-1.21 -2.06,-1.48 -1.85,-1.71 -1.64,-1.93 -1.39,-2.10 -1.13,-2.27 -1.13,-2.27 L -1.13,-2.27 Z"></path></g></svg>