<svg version="1.1" xmlns="http://www.w3.org/2000/svg" viewBox="0 0 225.41860487978784 205.76834272088126" width="225.41860487978784" height="205.76834272088126">
  <!-- svg-source:excalidraw -->
  
  <defs>
    <style class="style-fonts">
      
    </style>
    
  </defs>
  <rect x="0" y="0" width="225.41860487978784" height="205.76834272088126" fill="transparent"></rect><g stroke-linecap="round" transform="translate(23.05505418704888 9.999999999999545) rotate(0 94.83402715798366 92.88417136044086)"><path d="M80.74 1.86 C91.85 -1.25, 105.96 -0.17, 117.73 2.6 C129.49 5.37, 141.46 11.5, 151.33 18.47 C161.21 25.43, 170.88 34.25, 176.98 44.37 C183.07 54.48, 186.3 67.4, 187.92 79.15 C189.54 90.9, 189.47 103.19, 186.69 114.88 C183.91 126.57, 178.4 139.55, 171.22 149.28 C164.05 159.02, 154.22 167.26, 143.64 173.27 C133.06 179.27, 119.82 183.73, 107.75 185.3 C95.68 186.87, 82.74 185.65, 71.23 182.66 C59.72 179.67, 48.29 174.34, 38.68 167.35 C29.08 160.36, 19.8 150.82, 13.6 140.72 C7.4 130.63, 3.4 118.54, 1.47 106.79 C-0.46 95.04, -0.87 81.81, 2 70.21 C4.88 58.61, 11.41 46.69, 18.71 37.21 C26.01 27.73, 34.24 19.61, 45.8 13.36 C57.36 7.1, 79.65 1.62, 88.07 -0.31 C96.5 -2.23, 96.23 0.22, 96.36 1.8 M110.44 2.02 C122.02 1.94, 133.92 6.37, 144.05 12.48 C154.17 18.58, 164.08 28.69, 171.19 38.64 C178.3 48.58, 183.83 60.79, 186.7 72.16 C189.56 83.52, 190.27 95.16, 188.38 106.81 C186.49 118.46, 181.65 132, 175.35 142.04 C169.05 152.08, 160.54 160.33, 150.56 167.05 C140.58 173.76, 127.07 179.57, 115.47 182.33 C103.86 185.09, 92.94 185.52, 80.93 183.61 C68.92 181.7, 54.13 177.02, 43.42 170.88 C32.71 164.73, 23.6 156.41, 16.66 146.75 C9.72 137.09, 4.35 124.57, 1.78 112.92 C-0.8 101.26, -0.71 88.19, 1.2 76.82 C3.11 65.44, 6.67 54.32, 13.23 44.66 C19.8 35, 30.52 25.8, 40.58 18.85 C50.63 11.9, 61.78 5.71, 73.56 2.97 C85.33 0.22, 105.12 2.24, 111.22 2.4 C117.32 2.55, 110.63 2.81, 110.15 3.9" stroke="none" stroke-width="0" fill="#228be6"></path><path d="M89.39 0.25 C100.61 -1.87, 113.99 1.29, 125.49 5.35 C137 9.42, 149.13 16.67, 158.42 24.63 C167.71 32.58, 175.87 42.65, 181.22 53.1 C186.56 63.55, 190.07 75.39, 190.5 87.32 C190.92 99.24, 187.94 113.24, 183.79 124.65 C179.65 136.06, 173.56 147.19, 165.63 155.77 C157.71 164.35, 147.35 171.04, 136.24 176.15 C125.12 181.26, 111.25 185.85, 98.94 186.42 C86.62 186.98, 73.6 183.5, 62.32 179.54 C51.05 175.58, 40.17 170.31, 31.27 162.66 C22.38 155.02, 14.18 144.38, 8.94 133.68 C3.7 122.97, 0.29 110.25, -0.16 98.41 C-0.62 86.58, 2.25 73.9, 6.22 62.65 C10.18 51.41, 15.68 39.98, 23.64 30.95 C31.61 21.92, 41.68 13.66, 54.01 8.47 C66.34 3.29, 89.22 0.77, 97.61 -0.17 C106 -1.1, 104.32 1.33, 104.36 2.84 M131.52 6.8 C142.73 9.8, 152.98 19.31, 161.49 27.77 C170 36.22, 177.89 46.62, 182.57 57.53 C187.25 68.45, 189.56 81.51, 189.59 93.23 C189.62 104.96, 187.22 116.76, 182.75 127.89 C178.28 139.03, 171.53 151.73, 162.78 160.05 C154.02 168.37, 141.53 173.43, 130.24 177.82 C118.95 182.2, 107.22 186.06, 95.06 186.36 C82.89 186.66, 68.41 184.3, 57.27 179.61 C46.12 174.92, 36.39 166.88, 28.17 158.22 C19.96 149.56, 12.5 138.77, 7.98 127.64 C3.47 116.51, 1.4 103.07, 1.08 91.44 C0.76 79.81, 1.48 68.64, 6.04 57.85 C10.61 47.06, 19.54 35.03, 28.45 26.71 C37.37 18.39, 48.34 12.46, 59.54 7.93 C70.74 3.4, 83.5 -0.23, 95.67 -0.48 C107.83 -0.72, 126.88 4.75, 132.51 6.45 C138.14 8.15, 130.31 8.23, 129.43 9.72" stroke="#1e1e1e" stroke-width="1" fill="none"></path></g><g transform="translate(64.7716961817523 44.06461472011233) rotate(0 5.028930380938391 0.09670133136228287)" stroke="none"><path fill="#1971c2" d="M -0.47,-2.14 Q -0.47,-2.14 0.40,-2.35 1.29,-2.55 2.69,-2.75 4.09,-2.95 5.40,-3.05 6.71,-3.15 8.38,-3.16 10.05,-3.17 10.53,-3.09 11.01,-3.02 11.43,-2.79 11.86,-2.56 12.19,-2.21 12.52,-1.86 12.73,-1.42 12.93,-0.99 12.98,-0.51 13.03,-0.03 12.93,0.43 12.83,0.91 12.58,1.32 12.33,1.73 11.96,2.05 11.59,2.36 11.14,2.54 10.69,2.72 10.21,2.74 9.73,2.77 9.26,2.64 8.80,2.51 8.40,2.24 8.00,1.97 7.71,1.58 7.42,1.20 7.26,0.74 7.11,0.28 7.11,-0.19 7.11,-0.67 7.26,-1.13 7.42,-1.59 7.71,-1.97 8.00,-2.36 8.40,-2.63 8.80,-2.90 9.27,-3.03 9.73,-3.16 10.21,-3.13 10.70,-3.10 11.14,-2.92 11.59,-2.75 11.96,-2.43 12.33,-2.12 12.58,-1.71 12.83,-1.29 12.93,-0.82 13.03,-0.35 12.98,0.12 12.93,0.60 12.73,1.04 12.52,1.48 12.19,1.83 11.86,2.18 11.43,2.40 11.00,2.63 10.53,2.71 10.05,2.79 10.05,2.79 10.05,2.79 8.41,2.78 6.76,2.77 5.58,2.71 4.41,2.65 3.34,2.65 2.26,2.66 1.37,2.79 0.47,2.91 0.16,2.93 -0.14,2.95 -0.45,2.90 -0.75,2.84 -1.03,2.72 -1.32,2.59 -1.56,2.40 -1.81,2.21 -2.00,1.97 -2.19,1.72 -2.32,1.44 -2.45,1.16 -2.51,0.85 -2.56,0.55 -2.55,0.24 -2.53,-0.06 -2.44,-0.36 -2.35,-0.66 -2.19,-0.92 -2.03,-1.19 -1.81,-1.41 -1.59,-1.63 -1.33,-1.79 -1.06,-1.95 -0.77,-2.05 -0.47,-2.14 -0.47,-2.14 L -0.47,-2.14 Z"></path></g><g transform="translate(83.34004883567741 43.09749810886797) rotate(0 3.1914353818185646 -0.48355092722113113)" stroke="none"><path fill="#1971c2" d="M -0.18,-2.53 Q -0.18,-2.53 0.59,-2.63 1.36,-2.73 3.74,-3.21 6.11,-3.68 6.55,-3.65 6.99,-3.62 7.40,-3.46 7.81,-3.29 8.14,-3.00 8.48,-2.71 8.70,-2.33 8.93,-1.95 9.02,-1.51 9.11,-1.08 9.05,-0.64 9.00,-0.20 8.81,0.19 8.62,0.58 8.32,0.90 8.01,1.22 7.62,1.42 7.22,1.63 6.79,1.69 6.35,1.76 5.91,1.68 5.48,1.61 5.09,1.40 4.70,1.18 4.40,0.86 4.10,0.54 3.92,0.13 3.74,-0.26 3.69,-0.70 3.65,-1.14 3.75,-1.57 3.85,-2.00 4.08,-2.38 4.31,-2.75 4.65,-3.04 4.99,-3.32 5.41,-3.48 5.82,-3.64 6.26,-3.66 6.70,-3.67 7.13,-3.55 7.55,-3.43 7.91,-3.18 8.28,-2.92 8.54,-2.57 8.81,-2.22 8.94,-1.80 9.08,-1.37 9.07,-0.93 9.07,-0.49 8.92,-0.07 8.78,0.33 8.51,0.68 8.23,1.03 7.87,1.28 7.50,1.52 7.07,1.63 6.64,1.75 6.64,1.75 6.64,1.75 4.19,2.13 1.74,2.51 0.96,2.52 0.18,2.53 -0.12,2.51 -0.43,2.50 -0.72,2.41 -1.01,2.32 -1.28,2.17 -1.54,2.01 -1.76,1.80 -1.98,1.58 -2.14,1.32 -2.30,1.06 -2.39,0.77 -2.49,0.48 -2.51,0.17 -2.53,-0.12 -2.48,-0.42 -2.43,-0.72 -2.30,-1.00 -2.18,-1.29 -2.00,-1.53 -1.81,-1.77 -1.57,-1.96 -1.33,-2.15 -1.05,-2.28 -0.78,-2.41 -0.48,-2.47 -0.18,-2.53 -0.18,-2.53 L -0.18,-2.53 Z"></path></g><g transform="translate(100.1676225786482 42.130396254425705) rotate(0 4.642088163481503 -1.0638105642058235)" stroke="none"><path fill="#1971c2" d="M -0.40,-2.58 Q -0.40,-2.58 0.64,-2.77 1.69,-2.96 3.01,-3.30 4.33,-3.64 5.90,-4.03 7.47,-4.41 7.89,-4.64 8.30,-4.86 8.76,-4.95 9.23,-5.03 9.69,-4.97 10.16,-4.90 10.58,-4.69 11.00,-4.47 11.33,-4.14 11.66,-3.80 11.86,-3.38 12.07,-2.95 12.13,-2.49 12.19,-2.02 12.10,-1.56 12.00,-1.09 11.77,-0.69 11.53,-0.28 11.18,0.02 10.83,0.33 10.39,0.52 9.96,0.70 9.49,0.73 9.02,0.77 8.56,0.65 8.10,0.53 7.71,0.27 7.32,0.02 7.02,-0.34 6.73,-0.71 6.57,-1.16 6.41,-1.60 6.41,-2.07 6.40,-2.54 6.54,-2.99 6.68,-3.44 6.96,-3.82 7.24,-4.20 7.62,-4.47 8.01,-4.74 8.46,-4.88 8.91,-5.01 9.38,-4.99 9.85,-4.98 10.29,-4.81 10.74,-4.64 11.10,-4.35 11.46,-4.05 11.71,-3.65 11.96,-3.25 12.07,-2.79 12.18,-2.33 12.14,-1.86 12.10,-1.39 11.91,-0.96 11.72,-0.53 11.40,-0.18 11.08,0.15 11.08,0.15 11.08,0.15 8.38,0.98 5.68,1.81 4.10,2.05 2.52,2.30 1.46,2.44 0.40,2.58 0.09,2.59 -0.22,2.60 -0.53,2.53 -0.83,2.47 -1.12,2.33 -1.40,2.20 -1.64,2.00 -1.89,1.80 -2.08,1.54 -2.26,1.29 -2.39,1.00 -2.51,0.71 -2.56,0.40 -2.61,0.09 -2.58,-0.22 -2.55,-0.53 -2.45,-0.83 -2.35,-1.13 -2.18,-1.39 -2.01,-1.66 -1.78,-1.87 -1.55,-2.09 -1.28,-2.25 -1.01,-2.40 -0.71,-2.49 -0.40,-2.58 -0.40,-2.58 L -0.40,-2.58 Z"></path></g><g transform="translate(64.57827876222473 55.669836973416295) rotate(0 5.028930380938391 0.09670133136228287)" stroke="none"><path fill="#1971c2" d="M -0.47,-2.14 Q -0.47,-2.14 0.40,-2.35 1.29,-2.55 2.69,-2.75 4.09,-2.95 5.40,-3.05 6.71,-3.15 8.38,-3.16 10.05,-3.17 10.53,-3.09 11.01,-3.02 11.43,-2.79 11.86,-2.56 12.19,-2.21 12.52,-1.86 12.73,-1.42 12.93,-0.99 12.98,-0.51 13.03,-0.03 12.93,0.43 12.83,0.91 12.58,1.32 12.33,1.73 11.96,2.05 11.59,2.36 11.14,2.54 10.69,2.72 10.21,2.74 9.73,2.77 9.26,2.64 8.80,2.51 8.40,2.24 8.00,1.97 7.71,1.58 7.42,1.20 7.26,0.74 7.11,0.28 7.11,-0.19 7.11,-0.67 7.26,-1.13 7.42,-1.59 7.71,-1.97 8.00,-2.36 8.40,-2.63 8.80,-2.90 9.27,-3.03 9.73,-3.16 10.21,-3.13 10.70,-3.10 11.14,-2.92 11.59,-2.75 11.96,-2.43 12.33,-2.12 12.58,-1.71 12.83,-1.29 12.93,-0.82 13.03,-0.35 12.98,0.12 12.93,0.60 12.73,1.04 12.52,1.48 12.19,1.83 11.86,2.18 11.43,2.40 11.00,2.63 10.53,2.71 10.05,2.79 10.05,2.79 10.05,2.79 8.41,2.78 6.76,2.77 5.58,2.71 4.41,2.65 3.34,2.65 2.26,2.66 1.37,2.79 0.47,2.91 0.16,2.93 -0.14,2.95 -0.45,2.90 -0.75,2.84 -1.03,2.72 -1.32,2.59 -1.56,2.40 -1.81,2.21 -2.00,1.97 -2.19,1.72 -2.32,1.44 -2.45,1.16 -2.51,0.85 -2.56,0.55 -2.55,0.24 -2.53,-0.06 -2.44,-0.36 -2.35,-0.66 -2.19,-0.92 -2.03,-1.19 -1.81,-1.41 -1.59,-1.63 -1.33,-1.79 -1.06,-1.95 -0.77,-2.05 -0.47,-2.14 -0.47,-2.14 L -0.47,-2.14 Z"></path></g><g transform="translate(147.36220340517957 64.95402067878058) rotate(0 5.028930380938391 0.09670133136228287)" stroke="none"><path fill="#1971c2" d="M -0.47,-2.14 Q -0.47,-2.14 0.40,-2.35 1.29,-2.55 2.69,-2.75 4.09,-2.95 5.40,-3.05 6.71,-3.15 8.38,-3.16 10.05,-3.17 10.53,-3.09 11.01,-3.02 11.43,-2.79 11.86,-2.56 12.19,-2.21 12.52,-1.86 12.73,-1.42 12.93,-0.99 12.98,-0.51 13.03,-0.03 12.93,0.43 12.83,0.91 12.58,1.32 12.33,1.73 11.96,2.05 11.59,2.36 11.14,2.54 10.69,2.72 10.21,2.74 9.73,2.77 9.26,2.64 8.80,2.51 8.40,2.24 8.00,1.97 7.71,1.58 7.42,1.20 7.26,0.74 7.11,0.28 7.11,-0.19 7.11,-0.67 7.26,-1.13 7.42,-1.59 7.71,-1.97 8.00,-2.36 8.40,-2.63 8.80,-2.90 9.27,-3.03 9.73,-3.16 10.21,-3.13 10.70,-3.10 11.14,-2.92 11.59,-2.75 11.96,-2.43 12.33,-2.12 12.58,-1.71 12.83,-1.29 12.93,-0.82 13.03,-0.35 12.98,0.12 12.93,0.60 12.73,1.04 12.52,1.48 12.19,1.83 11.86,2.18 11.43,2.40 11.00,2.63 10.53,2.71 10.05,2.79 10.05,2.79 10.05,2.79 8.41,2.78 6.76,2.77 5.58,2.71 4.41,2.65 3.34,2.65 2.26,2.66 1.37,2.79 0.47,2.91 0.16,2.93 -0.14,2.95 -0.45,2.90 -0.75,2.84 -1.03,2.72 -1.32,2.59 -1.56,2.40 -1.81,2.21 -2.00,1.97 -2.19,1.72 -2.32,1.44 -2.45,1.16 -2.51,0.85 -2.56,0.55 -2.55,0.24 -2.53,-0.06 -2.44,-0.36 -2.35,-0.66 -2.19,-0.92 -2.03,-1.19 -1.81,-1.41 -1.59,-1.63 -1.33,-1.79 -1.06,-1.95 -0.77,-2.05 -0.47,-2.14 -0.47,-2.14 L -0.47,-2.14 Z"></path></g><g transform="translate(84.88741770550632 92.61313961854239) rotate(0 18.08480541590484 0.38683483905560934)" stroke="none"><path fill="#1971c2" d="M 0,-1.35 Q 0,-1.35 1.79,-1.30 3.59,-1.25 5.15,-1.25 6.71,-1.26 9.63,-1.73 12.55,-2.21 14.13,-2.28 15.72,-2.35 17.60,-2.32 19.48,-2.29 20.88,-2.34 22.27,-2.39 23.89,-2.51 25.50,-2.64 26.73,-2.76 27.97,-2.87 29.23,-2.97 30.48,-3.06 33.32,-3.14 36.16,-3.21 36.65,-3.14 37.13,-3.06 37.56,-2.83 38.00,-2.60 38.33,-2.24 38.67,-1.89 38.87,-1.44 39.08,-1.00 39.13,-0.51 39.19,-0.02 39.08,0.44 38.98,0.92 38.72,1.34 38.47,1.76 38.10,2.08 37.72,2.39 37.27,2.58 36.81,2.76 36.33,2.78 35.84,2.81 35.37,2.68 34.89,2.55 34.49,2.27 34.08,2.00 33.79,1.61 33.49,1.22 33.33,0.75 33.18,0.29 33.18,-0.19 33.18,-0.68 33.34,-1.14 33.49,-1.61 33.79,-2.00 34.08,-2.39 34.49,-2.66 34.89,-2.93 35.37,-3.07 35.84,-3.20 36.33,-3.17 36.82,-3.14 37.27,-2.96 37.73,-2.78 38.10,-2.46 38.47,-2.15 38.72,-1.73 38.98,-1.31 39.08,-0.83 39.19,-0.35 39.13,0.13 39.08,0.61 38.87,1.06 38.67,1.50 38.33,1.86 38.00,2.21 37.56,2.44 37.13,2.67 36.65,2.75 36.16,2.83 36.16,2.83 36.16,2.83 33.32,2.75 30.48,2.67 29.23,2.58 27.97,2.49 26.74,2.37 25.52,2.26 23.91,2.14 22.31,2.03 20.92,2.01 19.54,1.98 17.72,2.06 15.89,2.14 14.40,2.19 12.91,2.24 11.37,2.38 9.84,2.53 8.29,2.86 6.74,3.19 5.17,3.19 3.59,3.18 1.79,3.24 0,3.29 -0.27,3.25 -0.55,3.22 -0.81,3.12 -1.07,3.02 -1.31,2.86 -1.54,2.70 -1.72,2.49 -1.91,2.28 -2.04,2.03 -2.17,1.79 -2.23,1.51 -2.30,1.24 -2.30,0.96 -2.30,0.68 -2.23,0.41 -2.17,0.14 -2.04,-0.10 -1.91,-0.35 -1.72,-0.56 -1.54,-0.77 -1.30,-0.93 -1.07,-1.09 -0.81,-1.18 -0.55,-1.28 -0.27,-1.32 0.00,-1.35 0.00,-1.35 L 0,-1.35 Z"></path></g><g transform="translate(147.9424630421654 93.77365889251223) rotate(0 18.08480541590484 0.38683483905560934)" stroke="none"><path fill="#1971c2" d="M 0,-1.35 Q 0,-1.35 1.79,-1.30 3.59,-1.25 5.15,-1.25 6.71,-1.26 9.63,-1.73 12.55,-2.21 14.13,-2.28 15.72,-2.35 17.60,-2.32 19.48,-2.29 20.88,-2.34 22.27,-2.39 23.89,-2.51 25.50,-2.64 26.73,-2.76 27.97,-2.87 29.23,-2.97 30.48,-3.06 33.32,-3.14 36.16,-3.21 36.65,-3.14 37.13,-3.06 37.56,-2.83 38.00,-2.60 38.33,-2.24 38.67,-1.89 38.87,-1.44 39.08,-1.00 39.13,-0.51 39.19,-0.02 39.08,0.44 38.98,0.92 38.72,1.34 38.47,1.76 38.10,2.08 37.72,2.39 37.27,2.58 36.81,2.76 36.33,2.78 35.84,2.81 35.37,2.68 34.89,2.55 34.49,2.27 34.08,2.00 33.79,1.61 33.49,1.22 33.33,0.75 33.18,0.29 33.18,-0.19 33.18,-0.68 33.34,-1.14 33.49,-1.61 33.79,-2.00 34.08,-2.39 34.49,-2.66 34.89,-2.93 35.37,-3.07 35.84,-3.20 36.33,-3.17 36.82,-3.14 37.27,-2.96 37.73,-2.78 38.10,-2.46 38.47,-2.15 38.72,-1.73 38.98,-1.31 39.08,-0.83 39.19,-0.35 39.13,0.13 39.08,0.61 38.87,1.06 38.67,1.50 38.33,1.86 38.00,2.21 37.56,2.44 37.13,2.67 36.65,2.75 36.16,2.83 36.16,2.83 36.16,2.83 33.32,2.75 30.48,2.67 29.23,2.58 27.97,2.49 26.74,2.37 25.52,2.26 23.91,2.14 22.31,2.03 20.92,2.01 19.54,1.98 17.72,2.06 15.89,2.14 14.40,2.19 12.91,2.24 11.37,2.38 9.84,2.53 8.29,2.86 6.74,3.19 5.17,3.19 3.59,3.18 1.79,3.24 0,3.29 -0.27,3.25 -0.55,3.22 -0.81,3.12 -1.07,3.02 -1.31,2.86 -1.54,2.70 -1.72,2.49 -1.91,2.28 -2.04,2.03 -2.17,1.79 -2.23,1.51 -2.30,1.24 -2.30,0.96 -2.30,0.68 -2.23,0.41 -2.17,0.14 -2.04,-0.10 -1.91,-0.35 -1.72,-0.56 -1.54,-0.77 -1.30,-0.93 -1.07,-1.09 -0.81,-1.18 -0.55,-1.28 -0.27,-1.32 0.00,-1.35 0.00,-1.35 L 0,-1.35 Z"></path></g><g transform="translate(96.10579774135385 122.39987968671585) rotate(0 18.08480541590484 0.38683483905560934)" stroke="none"><path fill="#1971c2" d="M 0,-1.35 Q 0,-1.35 1.79,-1.30 3.59,-1.25 5.15,-1.25 6.71,-1.26 9.63,-1.73 12.55,-2.21 14.13,-2.28 15.72,-2.35 17.60,-2.32 19.48,-2.29 20.88,-2.34 22.27,-2.39 23.89,-2.51 25.50,-2.64 26.73,-2.76 27.97,-2.87 29.23,-2.97 30.48,-3.06 33.32,-3.14 36.16,-3.21 36.65,-3.14 37.13,-3.06 37.56,-2.83 38.00,-2.60 38.33,-2.24 38.67,-1.89 38.87,-1.44 39.08,-1.00 39.13,-0.51 39.19,-0.02 39.08,0.44 38.98,0.92 38.72,1.34 38.47,1.76 38.10,2.08 37.72,2.39 37.27,2.58 36.81,2.76 36.33,2.78 35.84,2.81 35.37,2.68 34.89,2.55 34.49,2.27 34.08,2.00 33.79,1.61 33.49,1.22 33.33,0.75 33.18,0.29 33.18,-0.19 33.18,-0.68 33.34,-1.14 33.49,-1.61 33.79,-2.00 34.08,-2.39 34.49,-2.66 34.89,-2.93 35.37,-3.07 35.84,-3.20 36.33,-3.17 36.82,-3.14 37.27,-2.96 37.73,-2.78 38.10,-2.46 38.47,-2.15 38.72,-1.73 38.98,-1.31 39.08,-0.83 39.19,-0.35 39.13,0.13 39.08,0.61 38.87,1.06 38.67,1.50 38.33,1.86 38.00,2.21 37.56,2.44 37.13,2.67 36.65,2.75 36.16,2.83 36.16,2.83 36.16,2.83 33.32,2.75 30.48,2.67 29.23,2.58 27.97,2.49 26.74,2.37 25.52,2.26 23.91,2.14 22.31,2.03 20.92,2.01 19.54,1.98 17.72,2.06 15.89,2.14 14.40,2.19 12.91,2.24 11.37,2.38 9.84,2.53 8.29,2.86 6.74,3.19 5.17,3.19 3.59,3.18 1.79,3.24 0,3.29 -0.27,3.25 -0.55,3.22 -0.81,3.12 -1.07,3.02 -1.31,2.86 -1.54,2.70 -1.72,2.49 -1.91,2.28 -2.04,2.03 -2.17,1.79 -2.23,1.51 -2.30,1.24 -2.30,0.96 -2.30,0.68 -2.23,0.41 -2.17,0.14 -2.04,-0.10 -1.91,-0.35 -1.72,-0.56 -1.54,-0.77 -1.30,-0.93 -1.07,-1.09 -0.81,-1.18 -0.55,-1.28 -0.27,-1.32 0.00,-1.35 0.00,-1.35 L 0,-1.35 Z"></path></g><g transform="translate(63.611176907783374 145.41690677379484) rotate(0 18.08480541590484 1.3539219366953148)" stroke="none"><path fill="#1971c2" d="M 0,-2.49 Q 0,-2.49 1.79,-2.44 3.59,-2.39 5.28,-2.36 6.96,-2.33 8.72,-1.30 10.48,-0.26 11.83,-0.01 13.19,0.22 14.61,0.35 16.03,0.48 17.81,0.59 19.59,0.70 20.96,0.69 22.33,0.68 23.93,0.57 25.53,0.47 26.75,0.35 27.97,0.23 29.23,0.14 30.48,0.04 33.32,-0.03 36.16,-0.10 36.65,-0.03 37.13,0.04 37.56,0.27 37.99,0.50 38.32,0.85 38.66,1.21 38.86,1.65 39.07,2.09 39.12,2.58 39.17,3.06 39.07,3.54 38.96,4.01 38.71,4.43 38.46,4.85 38.09,5.16 37.72,5.48 37.26,5.66 36.81,5.84 36.33,5.86 35.84,5.89 35.37,5.76 34.90,5.63 34.50,5.36 34.09,5.08 33.80,4.69 33.50,4.31 33.35,3.84 33.19,3.38 33.19,2.90 33.19,2.41 33.35,1.95 33.50,1.49 33.80,1.10 34.09,0.71 34.50,0.44 34.90,0.16 35.37,0.03 35.84,-0.09 36.33,-0.06 36.81,-0.03 37.27,0.14 37.72,0.32 38.09,0.63 38.46,0.95 38.71,1.36 38.96,1.78 39.07,2.26 39.17,2.73 39.12,3.22 39.07,3.70 38.86,4.14 38.66,4.59 38.32,4.94 37.99,5.29 37.56,5.52 37.13,5.75 36.64,5.83 36.16,5.91 36.16,5.91 36.16,5.91 33.32,5.83 30.48,5.75 29.22,5.65 27.97,5.56 26.73,5.43 25.49,5.31 23.87,5.17 22.24,5.03 20.84,4.96 19.44,4.89 17.51,4.86 15.58,4.84 13.92,4.64 12.27,4.45 10.15,3.94 8.03,3.44 7.26,2.69 6.49,1.95 5.04,1.98 3.59,2.01 1.79,2.05 0,2.10 -0.27,2.07 -0.55,2.04 -0.80,1.94 -1.06,1.84 -1.29,1.68 -1.52,1.52 -1.70,1.32 -1.89,1.11 -2.02,0.86 -2.15,0.62 -2.21,0.35 -2.28,0.08 -2.28,-0.19 -2.28,-0.47 -2.21,-0.74 -2.15,-1.00 -2.02,-1.25 -1.89,-1.50 -1.70,-1.70 -1.52,-1.91 -1.29,-2.07 -1.06,-2.23 -0.80,-2.32 -0.55,-2.42 -0.27,-2.46 0.00,-2.49 0.00,-2.49 L 0,-2.49 Z"></path></g><g transform="translate(122.41096523081524 159.92343459042468) rotate(0 18.08480541590484 1.3539219366953148)" stroke="none"><path fill="#1971c2" d="M 0,-2.49 Q 0,-2.49 1.79,-2.44 3.59,-2.39 5.28,-2.36 6.96,-2.33 8.72,-1.30 10.48,-0.26 11.83,-0.01 13.19,0.22 14.61,0.35 16.03,0.48 17.81,0.59 19.59,0.70 20.96,0.69 22.33,0.68 23.93,0.57 25.53,0.47 26.75,0.35 27.97,0.23 29.23,0.14 30.48,0.04 33.32,-0.03 36.16,-0.10 36.65,-0.03 37.13,0.04 37.56,0.27 37.99,0.50 38.32,0.85 38.66,1.21 38.86,1.65 39.07,2.09 39.12,2.58 39.17,3.06 39.07,3.54 38.96,4.01 38.71,4.43 38.46,4.85 38.09,5.16 37.72,5.48 37.26,5.66 36.81,5.84 36.33,5.86 35.84,5.89 35.37,5.76 34.90,5.63 34.50,5.36 34.09,5.08 33.80,4.69 33.50,4.31 33.35,3.84 33.19,3.38 33.19,2.90 33.19,2.41 33.35,1.95 33.50,1.49 33.80,1.10 34.09,0.71 34.50,0.44 34.90,0.16 35.37,0.03 35.84,-0.09 36.33,-0.06 36.81,-0.03 37.27,0.14 37.72,0.32 38.09,0.63 38.46,0.95 38.71,1.36 38.96,1.78 39.07,2.26 39.17,2.73 39.12,3.22 39.07,3.70 38.86,4.14 38.66,4.59 38.32,4.94 37.99,5.29 37.56,5.52 37.13,5.75 36.64,5.83 36.16,5.91 36.16,5.91 36.16,5.91 33.32,5.83 30.48,5.75 29.22,5.65 27.97,5.56 26.73,5.43 25.49,5.31 23.87,5.17 22.24,5.03 20.84,4.96 19.44,4.89 17.51,4.86 15.58,4.84 13.92,4.64 12.27,4.45 10.15,3.94 8.03,3.44 7.26,2.69 6.49,1.95 5.04,1.98 3.59,2.01 1.79,2.05 0,2.10 -0.27,2.07 -0.55,2.04 -0.80,1.94 -1.06,1.84 -1.29,1.68 -1.52,1.52 -1.70,1.32 -1.89,1.11 -2.02,0.86 -2.15,0.62 -2.21,0.35 -2.28,0.08 -2.28,-0.19 -2.28,-0.47 -2.21,-0.74 -2.15,-1.00 -2.02,-1.25 -1.89,-1.50 -1.70,-1.70 -1.52,-1.91 -1.29,-2.07 -1.06,-2.23 -0.80,-2.32 -0.55,-2.42 -0.27,-2.46 0.00,-2.49 0.00,-2.49 L 0,-2.49 Z"></path></g><g transform="translate(24.665141470294657 33.859058262101826) rotate(0 7.73218544919655 21.802218192799955)" stroke="none"><path d="M1.11 1.56 C-0.97 2.8, -8.99 3.06, -11.41 6.14 C-13.82 9.22, -13.49 17.45, -13.35 20.05 C-13.22 22.65, -11.37 20.02, -10.6 21.72 C-9.83 23.43, -8.77 27.6, -8.74 30.29 C-8.71 32.98, -10.34 35.82, -10.43 37.88 C-10.51 39.95, -10.6 41.07, -9.25 42.68 C-7.9 44.28, -4.24 46.88, -2.33 47.53 C-0.41 48.17, -0.74 46.99, 2.24 46.55 C5.22 46.1, 12.15 46.81, 15.56 44.85 C18.98 42.88, 20.3 36.89, 22.73 34.76 C25.16 32.63, 28.94 33.19, 30.17 32.09 C31.4 31, 30.01 30.39, 30.13 28.21 C30.24 26.04, 31.7 21.76, 30.85 19.05 C29.99 16.34, 26.45 13.51, 24.98 11.96 C23.51 10.41, 22.94 11.28, 22.02 9.77 C21.11 8.26, 20.4 5.31, 19.5 2.89 C18.6 0.47, 18.35 -3.51, 16.6 -4.75 C14.85 -5.98, 11.48 -5.29, 9 -4.53 C6.52 -3.77, 3.59 -1.02, 1.7 -0.2 C-0.19 0.62, -1.74 -0.18, -2.34 0.39 C-2.94 0.95, -2.13 2.71, -1.91 3.21" stroke="none" stroke-width="0" fill="#868e96" fill-rule="evenodd"></path><path fill="#1e1e1e" d="M 1.60,2.09 Q 1.60,2.09 0.34,3.01 -0.92,3.93 -1.90,4.58 -2.88,5.23 -4.15,6.00 -5.42,6.77 -6.55,7.76 -7.68,8.75 -8.48,9.84 -9.29,10.94 -9.82,12.48 -10.34,14.01 -10.60,15.41 -10.85,16.80 -10.82,17.92 -10.79,19.05 -10.36,20.17 -9.93,21.30 -8.97,22.32 -8.01,23.34 -7.09,24.36 -6.17,25.38 -5.31,27.10 -4.44,28.82 -4.25,29.88 -4.06,30.94 -4.31,32.59 -4.56,34.23 -5.03,35.30 -5.50,36.37 -5.13,37.40 -4.75,38.42 -4.17,39.64 -3.60,40.85 -2.93,41.80 -2.27,42.75 -1.27,43.40 -0.28,44.04 1.16,44.14 2.61,44.24 3.83,43.94 5.05,43.65 6.23,43.01 7.40,42.37 8.91,41.87 10.41,41.37 11.86,40.89 13.30,40.41 14.26,39.20 15.22,38.00 15.86,36.99 16.51,35.98 17.17,35.10 17.84,34.23 18.74,33.53 19.65,32.84 21.02,32.06 22.40,31.28 23.66,31.04 24.93,30.80 26.10,30.49 27.27,30.17 26.60,29.07 25.92,27.97 25.97,26.66 26.01,25.36 25.90,23.92 25.79,22.48 25.65,21.29 25.51,20.11 24.87,18.36 24.22,16.61 23.63,15.14 23.03,13.67 22.07,12.17 21.11,10.68 20.11,10.01 19.10,9.34 18.00,8.65 16.90,7.96 16.12,6.81 15.34,5.65 14.70,4.32 14.05,2.99 13.61,1.79 13.16,0.59 12.58,-0.74 12.00,-2.08 11.22,-1.35 10.44,-0.63 9.21,-0.63 7.97,-0.64 6.88,-0.46 5.78,-0.28 4.64,0.36 3.50,1.00 3.08,3.24 2.67,5.47 2.47,6.04 2.27,6.61 1.89,7.09 1.52,7.57 1.01,7.90 0.51,8.23 -0.07,8.39 -0.66,8.54 -1.26,8.50 -1.87,8.46 -2.43,8.23 -2.98,7.99 -3.44,7.60 -3.90,7.20 -4.20,6.67 -4.51,6.15 -4.63,5.56 -4.75,4.96 -4.68,4.36 -4.60,3.76 -4.34,3.21 -4.08,2.67 -3.66,2.23 -3.23,1.80 -2.69,1.52 -2.16,1.25 -1.56,1.16 -0.96,1.07 -0.36,1.17 0.23,1.28 0.76,1.57 1.29,1.86 1.70,2.31 2.11,2.75 2.36,3.31 2.60,3.86 2.66,4.46 2.72,5.07 2.58,5.66 2.44,6.25 2.12,6.76 1.80,7.28 1.33,7.66 0.87,8.05 0.30,8.26 -0.26,8.48 -0.86,8.51 -1.47,8.53 -2.05,8.36 -2.63,8.19 -3.13,7.84 -3.62,7.49 -3.98,7.01 -4.34,6.52 -4.53,5.94 -4.71,5.37 -4.71,4.76 -4.70,4.15 -4.70,4.15 -4.70,4.15 -4.48,2.64 -4.25,1.12 -3.79,-0.59 -3.32,-2.30 -2.45,-3.38 -1.59,-4.45 -0.64,-5.03 0.30,-5.61 1.51,-6.10 2.72,-6.59 4.62,-7.17 6.52,-7.74 7.91,-7.85 9.30,-7.95 10.89,-7.90 12.48,-7.86 13.90,-7.62 15.32,-7.39 16.87,-6.28 18.42,-5.17 18.98,-4.02 19.54,-2.87 20.04,-1.53 20.54,-0.18 21.07,0.95 21.60,2.10 22.49,2.80 23.37,3.51 24.37,4.08 25.36,4.65 26.39,6.20 27.42,7.75 28.40,9.24 29.37,10.74 29.85,11.72 30.32,12.70 30.94,14.26 31.55,15.83 32.12,17.56 32.69,19.30 32.88,21.11 33.06,22.92 33.17,24.18 33.27,25.44 33.25,26.92 33.24,28.39 33.08,30.21 32.92,32.02 32.48,33.42 32.05,34.82 30.88,35.71 29.71,36.60 28.77,37.11 27.82,37.61 26.50,37.91 25.18,38.22 24.12,38.59 23.06,38.96 22.40,40.12 21.74,41.28 20.88,42.61 20.02,43.93 18.50,45.39 16.99,46.86 15.45,47.45 13.92,48.05 12.85,48.30 11.77,48.56 10.32,49.16 8.87,49.76 7.20,50.35 5.53,50.94 4.03,51.25 2.53,51.56 1.47,51.53 0.41,51.50 -0.83,51.29 -2.07,51.09 -3.06,50.68 -4.06,50.28 -4.94,49.57 -5.83,48.86 -7.10,47.81 -8.37,46.76 -9.04,45.75 -9.72,44.74 -10.74,42.75 -11.77,40.75 -12.04,39.47 -12.30,38.18 -12.29,36.86 -12.28,35.54 -12.14,34.45 -12.00,33.35 -11.51,32.27 -11.02,31.19 -11.40,30.18 -11.79,29.16 -13.04,27.90 -14.29,26.63 -15.29,25.04 -16.30,23.46 -16.77,21.91 -17.24,20.37 -17.30,19.11 -17.35,17.85 -17.16,16.59 -16.97,15.32 -16.62,13.81 -16.28,12.30 -15.96,11.26 -15.65,10.23 -14.73,8.38 -13.81,6.53 -12.43,5.20 -11.04,3.86 -10.15,3.24 -9.25,2.62 -8.11,1.98 -6.97,1.33 -5.50,0.59 -4.03,-0.14 -2.81,-1.11 -1.60,-2.09 -1.32,-2.25 -1.05,-2.41 -0.74,-2.50 -0.44,-2.59 -0.12,-2.61 0.19,-2.62 0.50,-2.56 0.81,-2.50 1.10,-2.37 1.39,-2.23 1.63,-2.04 1.88,-1.84 2.07,-1.58 2.27,-1.33 2.39,-1.04 2.52,-0.75 2.57,-0.44 2.63,-0.12 2.61,0.18 2.58,0.50 2.48,0.80 2.39,1.11 2.22,1.38 2.05,1.65 1.82,1.87 1.60,2.09 1.60,2.09 L 1.60,2.09 Z"></path></g><g transform="translate(24.196790318093463 84.9101199759366) rotate(0 0.7068109674642074 10.795796384774349)" stroke="none"><path d="M-4.41 -3.33 C-5.71 -2.34, -11.01 0.78, -12.67 2.92 C-14.33 5.06, -13.93 8.07, -14.37 9.5 C-14.81 10.93, -15.89 10.52, -15.31 11.5 C-14.74 12.49, -11.89 13.65, -10.92 15.42 C-9.94 17.18, -9.95 20.82, -9.45 22.08 C-8.95 23.34, -8.78 22.56, -7.93 22.98 C-7.08 23.4, -5.59 23.93, -4.33 24.6 C-3.06 25.26, -2.13 27.2, -0.36 26.96 C1.41 26.73, 4.26 24.62, 6.28 23.18 C8.29 21.73, 10.57 19.31, 11.73 18.27 C12.9 17.23, 12.76 18.27, 13.25 16.92 C13.74 15.56, 14.94 12.1, 14.66 10.14 C14.38 8.18, 12.68 6.5, 11.58 5.14 C10.48 3.79, 8.83 3.29, 8.08 2.02 C7.34 0.75, 8.59 -1.28, 7.1 -2.46 C5.62 -3.64, 0.73 -4.94, -0.81 -5.04 C-2.35 -5.13, -1.49 -4.24, -2.14 -3.04 C-2.8 -1.85, -4.03 1.42, -4.74 2.13" stroke="none" stroke-width="0" fill="#868e96" fill-rule="evenodd"></path><path fill="#1e1e1e" d="M -3.23,0.44 Q -3.23,0.44 -4.31,1.08 -5.40,1.72 -6.58,2.41 -7.76,3.09 -8.90,3.97 -10.05,4.84 -10.32,6.00 -10.60,7.16 -10.66,8.38 -10.72,9.61 -9.82,10.19 -8.91,10.77 -8.12,11.63 -7.33,12.50 -6.89,13.50 -6.45,14.51 -6.42,16.19 -6.40,17.86 -6.95,19.09 -7.51,20.32 -6.57,20.87 -5.62,21.42 -4.48,21.78 -3.33,22.14 -2.27,21.97 -1.21,21.80 -0.02,21.31 1.16,20.83 2.22,20.55 3.29,20.27 4.14,19.58 4.98,18.90 5.93,17.75 6.88,16.59 8.03,15.84 9.19,15.09 10.54,14.73 11.90,14.37 11.78,13.08 11.66,11.79 11.36,10.61 11.05,9.44 10.50,8.24 9.94,7.04 9.12,5.97 8.30,4.90 6.76,4.00 5.22,3.10 4.56,1.99 3.91,0.89 3.38,-0.16 2.85,-1.22 1.54,-0.80 0.23,-0.37 -0.87,0.02 -1.98,0.43 -1.72,1.09 -1.45,1.76 -1.68,2.34 -1.91,2.92 -2.30,3.40 -2.70,3.88 -3.24,4.21 -3.77,4.54 -4.38,4.68 -4.98,4.82 -5.61,4.76 -6.23,4.69 -6.80,4.44 -7.37,4.18 -7.82,3.76 -8.28,3.33 -8.58,2.78 -8.88,2.23 -8.98,1.62 -9.09,1.00 -9.00,0.39 -8.90,-0.22 -8.62,-0.78 -8.33,-1.33 -7.88,-1.76 -7.43,-2.20 -6.87,-2.47 -6.30,-2.73 -5.68,-2.81 -5.06,-2.88 -4.45,-2.75 -3.84,-2.62 -3.30,-2.31 -2.76,-1.99 -2.35,-1.52 -1.95,-1.05 -1.71,-0.47 -1.47,0.10 -1.43,0.72 -1.39,1.34 -1.55,1.95 -1.71,2.55 -2.06,3.07 -2.40,3.59 -2.90,3.97 -3.39,4.36 -3.98,4.56 -4.57,4.77 -5.19,4.77 -5.82,4.78 -6.41,4.59 -7.01,4.39 -7.51,4.02 -8.01,3.65 -8.36,3.13 -8.72,2.62 -8.89,2.02 -9.07,1.42 -9.04,0.80 -9.01,0.17 -9.01,0.17 -9.01,0.17 -8.45,-1.92 -7.89,-4.03 -7.17,-4.85 -6.45,-5.66 -4.86,-6.39 -3.27,-7.12 -1.77,-7.55 -0.28,-7.97 1.19,-8.04 2.67,-8.12 3.74,-8.04 4.81,-7.97 6.32,-7.43 7.84,-6.89 8.85,-5.63 9.87,-4.36 10.38,-3.07 10.90,-1.78 12.10,-1.22 13.29,-0.66 14.15,0.35 15.01,1.37 15.79,2.40 16.58,3.44 17.12,4.50 17.67,5.57 18.25,7.06 18.84,8.56 19.06,10.11 19.28,11.67 19.32,13.21 19.37,14.74 19.22,15.92 19.08,17.10 18.60,18.27 18.12,19.44 17.23,20.08 16.34,20.72 15.18,21.22 14.03,21.72 12.71,22.31 11.40,22.91 10.68,23.83 9.96,24.74 9.22,25.51 8.47,26.27 7.34,26.73 6.21,27.19 5.16,27.50 4.11,27.82 3.02,28.15 1.94,28.48 0.67,28.87 -0.59,29.26 -2.08,29.44 -3.58,29.62 -4.86,29.48 -6.15,29.33 -7.25,28.88 -8.36,28.43 -9.40,27.72 -10.45,27.01 -11.24,26.08 -12.03,25.15 -12.82,23.78 -13.60,22.42 -13.84,21.35 -14.08,20.28 -14.02,18.97 -13.97,17.66 -14.05,16.53 -14.13,15.40 -14.98,14.57 -15.83,13.74 -16.50,12.44 -17.17,11.14 -17.30,9.75 -17.43,8.36 -17.16,7.16 -16.88,5.96 -16.47,4.69 -16.06,3.41 -15.32,2.22 -14.58,1.02 -13.48,0.15 -12.39,-0.71 -11.36,-1.28 -10.33,-1.85 -9.19,-2.34 -8.05,-2.83 -6.95,-3.45 -5.86,-4.08 -5.57,-4.20 -5.28,-4.33 -4.97,-4.38 -4.65,-4.43 -4.34,-4.40 -4.02,-4.38 -3.73,-4.28 -3.43,-4.18 -3.16,-4.01 -2.89,-3.84 -2.67,-3.62 -2.45,-3.39 -2.29,-3.12 -2.14,-2.84 -2.05,-2.54 -1.96,-2.24 -1.95,-1.92 -1.93,-1.61 -1.99,-1.30 -2.06,-0.99 -2.19,-0.70 -2.33,-0.42 -2.53,-0.17 -2.72,0.06 -2.98,0.25 -3.23,0.44 -3.23,0.44 L -3.23,0.44 Z"></path></g><g transform="translate(199.80819262676596 141.9352313978652) rotate(0 0.7068109674642074 10.795796384774349)" stroke="none"><path d="M-6.03 -0.62 C-7.16 -0.15, -9.25 0.5, -10.79 1.99 C-12.33 3.48, -14.7 6.95, -15.27 8.32 C-15.84 9.7, -15.21 8.93, -14.19 10.25 C-13.17 11.57, -9.8 14.45, -9.14 16.23 C-8.48 18.01, -10.08 19.62, -10.21 20.93 C-10.35 22.24, -11.09 23.39, -9.97 24.08 C-8.85 24.77, -5.31 25.06, -3.52 25.07 C-1.72 25.07, -1.04 24.17, 0.8 24.11 C2.64 24.06, 6.09 25.49, 7.53 24.74 C8.98 23.99, 8.52 20.86, 9.46 19.6 C10.41 18.34, 12.47 19.02, 13.2 17.16 C13.94 15.31, 14.12 10.8, 13.88 8.47 C13.65 6.15, 12.76 4.69, 11.77 3.21 C10.78 1.73, 8.82 0.52, 7.94 -0.43 C7.06 -1.38, 7.5 -1.75, 6.49 -2.46 C5.49 -3.17, 3.53 -4.81, 1.91 -4.68 C0.29 -4.56, -2.13 -2.85, -3.23 -1.7 C-4.32 -0.55, -4.26 1.58, -4.66 2.21" stroke="none" stroke-width="0" fill="#868e96" fill-rule="evenodd"></path><path fill="#1e1e1e" d="M -3.23,0.44 Q -3.23,0.44 -4.31,1.08 -5.40,1.72 -6.58,2.41 -7.76,3.09 -8.90,3.97 -10.05,4.84 -10.32,6.00 -10.60,7.16 -10.66,8.38 -10.72,9.61 -9.82,10.19 -8.91,10.77 -8.12,11.63 -7.33,12.50 -6.89,13.50 -6.45,14.51 -6.42,16.19 -6.40,17.86 -6.95,19.09 -7.51,20.32 -6.57,20.87 -5.62,21.42 -4.48,21.78 -3.33,22.14 -2.27,21.97 -1.21,21.80 -0.02,21.31 1.16,20.83 2.22,20.55 3.29,20.27 4.14,19.58 4.98,18.90 5.93,17.75 6.88,16.59 8.03,15.84 9.19,15.09 10.54,14.73 11.90,14.37 11.78,13.08 11.66,11.79 11.36,10.61 11.05,9.44 10.50,8.24 9.94,7.04 9.12,5.97 8.30,4.90 6.76,4.00 5.22,3.10 4.56,1.99 3.91,0.89 3.38,-0.16 2.85,-1.22 1.54,-0.80 0.23,-0.37 -0.87,0.02 -1.98,0.43 -1.72,1.09 -1.45,1.76 -1.68,2.34 -1.91,2.92 -2.30,3.40 -2.70,3.88 -3.24,4.21 -3.77,4.54 -4.38,4.68 -4.98,4.82 -5.61,4.76 -6.23,4.69 -6.80,4.44 -7.37,4.18 -7.82,3.76 -8.28,3.33 -8.58,2.78 -8.88,2.23 -8.98,1.62 -9.09,1.00 -9.00,0.39 -8.90,-0.22 -8.62,-0.78 -8.33,-1.33 -7.88,-1.76 -7.43,-2.20 -6.87,-2.47 -6.30,-2.73 -5.68,-2.81 -5.06,-2.88 -4.45,-2.75 -3.84,-2.62 -3.30,-2.31 -2.76,-1.99 -2.35,-1.52 -1.95,-1.05 -1.71,-0.47 -1.47,0.10 -1.43,0.72 -1.39,1.34 -1.55,1.95 -1.71,2.55 -2.06,3.07 -2.40,3.59 -2.90,3.97 -3.39,4.36 -3.98,4.56 -4.57,4.77 -5.19,4.77 -5.82,4.78 -6.41,4.59 -7.01,4.39 -7.51,4.02 -8.01,3.65 -8.36,3.13 -8.72,2.62 -8.89,2.02 -9.07,1.42 -9.04,0.80 -9.01,0.17 -9.01,0.17 -9.01,0.17 -8.45,-1.92 -7.89,-4.03 -7.17,-4.85 -6.45,-5.66 -4.86,-6.39 -3.27,-7.12 -1.77,-7.55 -0.28,-7.97 1.19,-8.04 2.67,-8.12 3.74,-8.04 4.81,-7.97 6.32,-7.43 7.84,-6.89 8.85,-5.63 9.87,-4.36 10.38,-3.07 10.90,-1.78 12.10,-1.22 13.29,-0.66 14.15,0.35 15.01,1.37 15.79,2.40 16.58,3.44 17.12,4.50 17.67,5.57 18.25,7.06 18.84,8.56 19.06,10.11 19.28,11.67 19.32,13.21 19.37,14.74 19.22,15.92 19.08,17.10 18.60,18.27 18.12,19.44 17.23,20.08 16.34,20.72 15.18,21.22 14.03,21.72 12.71,22.31 11.40,22.91 10.68,23.83 9.96,24.74 9.22,25.51 8.47,26.27 7.34,26.73 6.21,27.19 5.16,27.50 4.11,27.82 3.02,28.15 1.94,28.48 0.67,28.87 -0.59,29.26 -2.08,29.44 -3.58,29.62 -4.86,29.48 -6.15,29.33 -7.25,28.88 -8.36,28.43 -9.40,27.72 -10.45,27.01 -11.24,26.08 -12.03,25.15 -12.82,23.78 -13.60,22.42 -13.84,21.35 -14.08,20.28 -14.02,18.97 -13.97,17.66 -14.05,16.53 -14.13,15.40 -14.98,14.57 -15.83,13.74 -16.50,12.44 -17.17,11.14 -17.30,9.75 -17.43,8.36 -17.16,7.16 -16.88,5.96 -16.47,4.69 -16.06,3.41 -15.32,2.22 -14.58,1.02 -13.48,0.15 -12.39,-0.71 -11.36,-1.28 -10.33,-1.85 -9.19,-2.34 -8.05,-2.83 -6.95,-3.45 -5.86,-4.08 -5.57,-4.20 -5.28,-4.33 -4.97,-4.38 -4.65,-4.43 -4.34,-4.40 -4.02,-4.38 -3.73,-4.28 -3.43,-4.18 -3.16,-4.01 -2.89,-3.84 -2.67,-3.62 -2.45,-3.39 -2.29,-3.12 -2.14,-2.84 -2.05,-2.54 -1.96,-2.24 -1.95,-1.92 -1.93,-1.61 -1.99,-1.30 -2.06,-0.99 -2.19,-0.70 -2.33,-0.42 -2.53,-0.17 -2.72,0.06 -2.98,0.25 -3.23,0.44 -3.23,0.44 L -3.23,0.44 Z"></path></g></svg>